<mxfile host="app.diagrams.net" agent="Mozilla/5.0 (Windows NT 10.0; Win64; x64) AppleWebKit/537.36 (KHTML, like Gecko) Chrome/134.0.0.0 Safari/537.36" version="26.1.0">
  <diagram id="C5RBs43oDa-KdzZeNtuy" name="Page-1">
    <mxGraphModel dx="8701.2" dy="3275.2" grid="1" gridSize="10" guides="1" tooltips="1" connect="1" arrows="1" fold="1" page="1" pageScale="0.8" pageWidth="827" pageHeight="1169" background="#ffffff" math="0" shadow="0">
      <root>
        <mxCell id="WIyWlLk6GJQsqaUBKTNV-0" />
        <mxCell id="WIyWlLk6GJQsqaUBKTNV-1" parent="WIyWlLk6GJQsqaUBKTNV-0" />
        <mxCell id="x9wP-T2VNKuLCY87gc1U-16" value="" style="rounded=0;whiteSpace=wrap;html=1;fillColor=#FFFFFF;" vertex="1" parent="WIyWlLk6GJQsqaUBKTNV-1">
          <mxGeometry x="-3160" y="-540" width="1250" height="1030" as="geometry" />
        </mxCell>
        <mxCell id="x9wP-T2VNKuLCY87gc1U-15" value="" style="rounded=0;whiteSpace=wrap;html=1;fillColor=#FFFFFF;" vertex="1" parent="WIyWlLk6GJQsqaUBKTNV-1">
          <mxGeometry x="-4430" y="120" width="1200" height="1090" as="geometry" />
        </mxCell>
        <mxCell id="x9wP-T2VNKuLCY87gc1U-14" value="" style="rounded=0;whiteSpace=wrap;html=1;fillColor=#FFFFFF;" vertex="1" parent="WIyWlLk6GJQsqaUBKTNV-1">
          <mxGeometry x="-2940" y="660" width="1200" height="910" as="geometry" />
        </mxCell>
        <mxCell id="x9wP-T2VNKuLCY87gc1U-12" value="" style="rounded=0;whiteSpace=wrap;html=1;fillColor=#FFFFFF;" vertex="1" parent="WIyWlLk6GJQsqaUBKTNV-1">
          <mxGeometry x="-1570" y="125.5" width="1474" height="839" as="geometry" />
        </mxCell>
        <mxCell id="zkfFHV4jXpPFQw0GAbJ--0" value="GameProfile" style="swimlane;fontStyle=0;align=center;verticalAlign=top;childLayout=stackLayout;horizontal=1;startSize=26;horizontalStack=0;resizeParent=1;resizeLast=0;collapsible=1;marginBottom=0;rounded=0;shadow=0;strokeWidth=1;" parent="WIyWlLk6GJQsqaUBKTNV-1" vertex="1">
          <mxGeometry x="-920" y="200.76" width="220" height="202" as="geometry">
            <mxRectangle x="230" y="140" width="160" height="26" as="alternateBounds" />
          </mxGeometry>
        </mxCell>
        <mxCell id="zkfFHV4jXpPFQw0GAbJ--1" value="# games: GameResult[]&#xa;# rank: PlayerRanking&#xa;- player: long&#xa;- gamesPlayed: int&#xa;- gameID: long" style="text;align=left;verticalAlign=top;spacingLeft=4;spacingRight=4;overflow=hidden;rotatable=0;points=[[0,0.5],[1,0.5]];portConstraint=eastwest;" parent="zkfFHV4jXpPFQw0GAbJ--0" vertex="1">
          <mxGeometry y="26" width="220" height="104" as="geometry" />
        </mxCell>
        <mxCell id="zkfFHV4jXpPFQw0GAbJ--4" value="" style="line;html=1;strokeWidth=1;align=left;verticalAlign=middle;spacingTop=-1;spacingLeft=3;spacingRight=3;rotatable=0;labelPosition=right;points=[];portConstraint=eastwest;" parent="zkfFHV4jXpPFQw0GAbJ--0" vertex="1">
          <mxGeometry y="130" width="220" height="8" as="geometry" />
        </mxCell>
        <mxCell id="zkfFHV4jXpPFQw0GAbJ--5" value="+ addMatch(result: GameResult): void&#xa;+ getGames(): ArrayList&lt;GameResult&gt;&#xa;+ getGame(): long" style="text;align=left;verticalAlign=top;spacingLeft=4;spacingRight=4;overflow=hidden;rotatable=0;points=[[0,0.5],[1,0.5]];portConstraint=eastwest;" parent="zkfFHV4jXpPFQw0GAbJ--0" vertex="1">
          <mxGeometry y="138" width="220" height="52" as="geometry" />
        </mxCell>
        <mxCell id="9oPnksN9PJK1Zj-ZbbYk-29" value="GameResult" style="swimlane;fontStyle=0;align=center;verticalAlign=top;childLayout=stackLayout;horizontal=1;startSize=26;horizontalStack=0;resizeParent=1;resizeLast=0;collapsible=1;marginBottom=0;rounded=0;shadow=0;strokeWidth=1;" parent="WIyWlLk6GJQsqaUBKTNV-1" vertex="1">
          <mxGeometry x="-661.6" y="198.76" width="290" height="204" as="geometry">
            <mxRectangle x="230" y="140" width="160" height="26" as="alternateBounds" />
          </mxGeometry>
        </mxCell>
        <mxCell id="9oPnksN9PJK1Zj-ZbbYk-32" value="- players: long[]&#xa;- gameID: long&#xa;- won: bool&#xa;- lost: bool" style="text;align=left;verticalAlign=top;spacingLeft=4;spacingRight=4;overflow=hidden;rotatable=0;points=[[0,0.5],[1,0.5]];portConstraint=eastwest;" parent="9oPnksN9PJK1Zj-ZbbYk-29" vertex="1">
          <mxGeometry y="26" width="290" height="64" as="geometry" />
        </mxCell>
        <mxCell id="9oPnksN9PJK1Zj-ZbbYk-31" value="" style="line;html=1;strokeWidth=1;align=left;verticalAlign=middle;spacingTop=-1;spacingLeft=3;spacingRight=3;rotatable=0;labelPosition=right;points=[];portConstraint=eastwest;" parent="9oPnksN9PJK1Zj-ZbbYk-29" vertex="1">
          <mxGeometry y="90" width="290" height="8" as="geometry" />
        </mxCell>
        <mxCell id="9oPnksN9PJK1Zj-ZbbYk-30" value="+GameResult(player: Long[], won: bool, lost: bool)&#xa;+ setGameID(v: long): void&#xa;+ getPlayers(): Long[]&#xa;+ getGameID(): long&#xa;+ getWon(): bool&#xa;+ getLost(): bool" style="text;align=left;verticalAlign=top;spacingLeft=4;spacingRight=4;overflow=hidden;rotatable=0;points=[[0,0.5],[1,0.5]];portConstraint=eastwest;" parent="9oPnksN9PJK1Zj-ZbbYk-29" vertex="1">
          <mxGeometry y="98" width="290" height="102" as="geometry" />
        </mxCell>
        <mxCell id="9oPnksN9PJK1Zj-ZbbYk-53" value="Main" style="swimlane;fontStyle=0;align=center;verticalAlign=top;childLayout=stackLayout;horizontal=1;startSize=26;horizontalStack=0;resizeParent=1;resizeLast=0;collapsible=1;marginBottom=0;rounded=0;shadow=0;strokeWidth=1;" parent="WIyWlLk6GJQsqaUBKTNV-1" vertex="1">
          <mxGeometry x="-770" y="-540" width="210" height="138" as="geometry">
            <mxRectangle x="230" y="140" width="160" height="26" as="alternateBounds" />
          </mxGeometry>
        </mxCell>
        <mxCell id="9oPnksN9PJK1Zj-ZbbYk-55" value="" style="line;html=1;strokeWidth=1;align=left;verticalAlign=middle;spacingTop=-1;spacingLeft=3;spacingRight=3;rotatable=0;labelPosition=right;points=[];portConstraint=eastwest;" parent="9oPnksN9PJK1Zj-ZbbYk-53" vertex="1">
          <mxGeometry y="26" width="210" height="8" as="geometry" />
        </mxCell>
        <mxCell id="9oPnksN9PJK1Zj-ZbbYk-56" value="+ main(args: String[]): void" style="text;align=left;verticalAlign=top;spacingLeft=4;spacingRight=4;overflow=hidden;rotatable=0;points=[[0,0.5],[1,0.5]];portConstraint=eastwest;fontStyle=4" parent="9oPnksN9PJK1Zj-ZbbYk-53" vertex="1">
          <mxGeometry y="34" width="210" height="52" as="geometry" />
        </mxCell>
        <mxCell id="edf9sT6OjQ_JvkJH-jNT-3" value="ServerGameInstance" style="swimlane;fontStyle=0;align=center;verticalAlign=top;childLayout=stackLayout;horizontal=1;startSize=26;horizontalStack=0;resizeParent=1;resizeLast=0;collapsible=1;marginBottom=0;rounded=0;shadow=0;strokeWidth=1;" parent="WIyWlLk6GJQsqaUBKTNV-1" vertex="1">
          <mxGeometry x="-3580" y="670" width="280" height="180" as="geometry">
            <mxRectangle x="230" y="140" width="160" height="26" as="alternateBounds" />
          </mxGeometry>
        </mxCell>
        <mxCell id="edf9sT6OjQ_JvkJH-jNT-4" value="-matchID: long&#xa;-players: ArrayList&lt;Long&gt;&#xa;-game: GameLogic&#xa;" style="text;align=left;verticalAlign=top;spacingLeft=4;spacingRight=4;overflow=hidden;rotatable=0;points=[[0,0.5],[1,0.5]];portConstraint=eastwest;" parent="edf9sT6OjQ_JvkJH-jNT-3" vertex="1">
          <mxGeometry y="26" width="280" height="64" as="geometry" />
        </mxCell>
        <mxCell id="edf9sT6OjQ_JvkJH-jNT-5" value="" style="line;html=1;strokeWidth=1;align=left;verticalAlign=middle;spacingTop=-1;spacingLeft=3;spacingRight=3;rotatable=0;labelPosition=right;points=[];portConstraint=eastwest;" parent="edf9sT6OjQ_JvkJH-jNT-3" vertex="1">
          <mxGeometry y="90" width="280" height="8" as="geometry" />
        </mxCell>
        <mxCell id="edf9sT6OjQ_JvkJH-jNT-42" value="+Â ServerGameInstance(id: long, logic: GameLogic)&#xa;+ tryRejoin(player: long): void&#xa;+ finishGame(results: ArrayList&lt;GameResult&gt;)&#xa;&#xa;" style="text;align=left;verticalAlign=top;spacingLeft=4;spacingRight=4;overflow=hidden;rotatable=0;points=[[0,0.5],[1,0.5]];portConstraint=eastwest;" parent="edf9sT6OjQ_JvkJH-jNT-3" vertex="1">
          <mxGeometry y="98" width="280" height="82" as="geometry" />
        </mxCell>
        <mxCell id="edf9sT6OjQ_JvkJH-jNT-35" style="edgeStyle=orthogonalEdgeStyle;rounded=0;orthogonalLoop=1;jettySize=auto;html=1;endArrow=open;startFill=0;endFill=0;entryX=0.997;entryY=0.18;entryDx=0;entryDy=0;entryPerimeter=0;exitX=0;exitY=0.5;exitDx=0;exitDy=0;" parent="WIyWlLk6GJQsqaUBKTNV-1" source="x9wP-T2VNKuLCY87gc1U-0" target="QMpJwfJOF2SySF0Yha2X-53" edge="1">
          <mxGeometry relative="1" as="geometry">
            <mxPoint x="-1080" y="-380" as="sourcePoint" />
            <mxPoint x="-1050" y="-170" as="targetPoint" />
            <Array as="points">
              <mxPoint x="-1090" y="-371" />
              <mxPoint x="-1090" y="-360" />
              <mxPoint x="-1120" y="-360" />
              <mxPoint x="-1120" y="-361" />
            </Array>
          </mxGeometry>
        </mxCell>
        <mxCell id="QMpJwfJOF2SySF0Yha2X-178" style="edgeStyle=orthogonalEdgeStyle;rounded=0;orthogonalLoop=1;jettySize=auto;html=1;exitX=0.25;exitY=0;exitDx=0;exitDy=0;" parent="WIyWlLk6GJQsqaUBKTNV-1" source="QMpJwfJOF2SySF0Yha2X-4" edge="1">
          <mxGeometry relative="1" as="geometry">
            <mxPoint x="-770" y="399.9999999999998" as="targetPoint" />
          </mxGeometry>
        </mxCell>
        <mxCell id="QMpJwfJOF2SySF0Yha2X-4" value="&lt;span style=&quot;font-weight: normal;&quot;&gt;- GameHistory&lt;/span&gt;" style="swimlane;fontStyle=1;align=center;verticalAlign=top;childLayout=stackLayout;horizontal=1;startSize=26;horizontalStack=0;resizeParent=1;resizeParentMax=0;resizeLast=0;collapsible=1;marginBottom=0;whiteSpace=wrap;html=1;" parent="WIyWlLk6GJQsqaUBKTNV-1" vertex="1">
          <mxGeometry x="-745" y="476" width="260" height="138" as="geometry" />
        </mxCell>
        <mxCell id="QMpJwfJOF2SySF0Yha2X-5" value="- gameHistory: HashMap&amp;lt;long, GameProfile&amp;gt;" style="text;strokeColor=none;fillColor=none;align=left;verticalAlign=top;spacingLeft=4;spacingRight=4;overflow=hidden;rotatable=0;points=[[0,0.5],[1,0.5]];portConstraint=eastwest;whiteSpace=wrap;html=1;" parent="QMpJwfJOF2SySF0Yha2X-4" vertex="1">
          <mxGeometry y="26" width="260" height="54" as="geometry" />
        </mxCell>
        <mxCell id="QMpJwfJOF2SySF0Yha2X-6" value="" style="line;strokeWidth=1;fillColor=none;align=left;verticalAlign=middle;spacingTop=-1;spacingLeft=3;spacingRight=3;rotatable=0;labelPosition=right;points=[];portConstraint=eastwest;strokeColor=inherit;" parent="QMpJwfJOF2SySF0Yha2X-4" vertex="1">
          <mxGeometry y="80" width="260" height="8" as="geometry" />
        </mxCell>
        <mxCell id="QMpJwfJOF2SySF0Yha2X-7" value="+ getGameHistory(): void&lt;div&gt;+ getRecentGames(): void&lt;/div&gt;" style="text;strokeColor=none;fillColor=none;align=left;verticalAlign=top;spacingLeft=4;spacingRight=4;overflow=hidden;rotatable=0;points=[[0,0.5],[1,0.5]];portConstraint=eastwest;whiteSpace=wrap;html=1;" parent="QMpJwfJOF2SySF0Yha2X-4" vertex="1">
          <mxGeometry y="88" width="260" height="50" as="geometry" />
        </mxCell>
        <mxCell id="QMpJwfJOF2SySF0Yha2X-12" style="edgeStyle=orthogonalEdgeStyle;rounded=0;orthogonalLoop=1;jettySize=auto;html=1;endArrow=diamondThin;endFill=1;endSize=24;startArrow=none;startFill=0;startSize=12;entryX=1.01;entryY=0.705;entryDx=0;entryDy=0;entryPerimeter=0;" parent="WIyWlLk6GJQsqaUBKTNV-1" source="QMpJwfJOF2SySF0Yha2X-4" target="QMpJwfJOF2SySF0Yha2X-42" edge="1">
          <mxGeometry relative="1" as="geometry">
            <Array as="points">
              <mxPoint x="-940" y="519" />
              <mxPoint x="-940" y="450" />
              <mxPoint x="-1120" y="450" />
              <mxPoint x="-1120" y="448" />
            </Array>
            <mxPoint x="-1120" y="490" as="targetPoint" />
          </mxGeometry>
        </mxCell>
        <mxCell id="QMpJwfJOF2SySF0Yha2X-13" value="&lt;span style=&quot;font-weight: normal;&quot;&gt;- FriendsList&lt;/span&gt;" style="swimlane;fontStyle=1;align=center;verticalAlign=top;childLayout=stackLayout;horizontal=1;startSize=26;horizontalStack=0;resizeParent=1;resizeParentMax=0;resizeLast=0;collapsible=1;marginBottom=0;whiteSpace=wrap;html=1;" parent="WIyWlLk6GJQsqaUBKTNV-1" vertex="1">
          <mxGeometry x="-1120" y="700" width="220" height="170" as="geometry" />
        </mxCell>
        <mxCell id="QMpJwfJOF2SySF0Yha2X-14" value="- friendsList(): HashMap&amp;lt;String, Profile&amp;gt;" style="text;strokeColor=none;fillColor=none;align=left;verticalAlign=top;spacingLeft=4;spacingRight=4;overflow=hidden;rotatable=0;points=[[0,0.5],[1,0.5]];portConstraint=eastwest;whiteSpace=wrap;html=1;" parent="QMpJwfJOF2SySF0Yha2X-13" vertex="1">
          <mxGeometry y="26" width="220" height="44" as="geometry" />
        </mxCell>
        <mxCell id="QMpJwfJOF2SySF0Yha2X-15" value="" style="line;strokeWidth=1;fillColor=none;align=left;verticalAlign=middle;spacingTop=-1;spacingLeft=3;spacingRight=3;rotatable=0;labelPosition=right;points=[];portConstraint=eastwest;strokeColor=inherit;" parent="QMpJwfJOF2SySF0Yha2X-13" vertex="1">
          <mxGeometry y="70" width="220" height="8" as="geometry" />
        </mxCell>
        <mxCell id="QMpJwfJOF2SySF0Yha2X-16" value="+ getFriendsLists(): void&lt;div&gt;+ addFriend(Profile): void&lt;/div&gt;&lt;div&gt;+ removeFriend(Profile): void&lt;/div&gt;&lt;div&gt;+ acceptRequest(): void&lt;/div&gt;&lt;div&gt;&lt;br&gt;&lt;/div&gt;" style="text;strokeColor=none;fillColor=none;align=left;verticalAlign=top;spacingLeft=4;spacingRight=4;overflow=hidden;rotatable=0;points=[[0,0.5],[1,0.5]];portConstraint=eastwest;whiteSpace=wrap;html=1;" parent="QMpJwfJOF2SySF0Yha2X-13" vertex="1">
          <mxGeometry y="78" width="220" height="92" as="geometry" />
        </mxCell>
        <mxCell id="QMpJwfJOF2SySF0Yha2X-17" style="edgeStyle=orthogonalEdgeStyle;shape=connector;rounded=0;orthogonalLoop=1;jettySize=auto;html=1;strokeColor=default;align=center;verticalAlign=middle;fontFamily=Helvetica;fontSize=11;fontColor=default;labelBackgroundColor=default;endArrow=diamondThin;endFill=1;endSize=24;exitX=-0.009;exitY=0.899;exitDx=0;exitDy=0;startArrow=none;startFill=0;startSize=12;exitPerimeter=0;entryX=1.007;entryY=0.933;entryDx=0;entryDy=0;entryPerimeter=0;" parent="WIyWlLk6GJQsqaUBKTNV-1" source="QMpJwfJOF2SySF0Yha2X-16" target="QMpJwfJOF2SySF0Yha2X-44" edge="1">
          <mxGeometry relative="1" as="geometry">
            <Array as="points">
              <mxPoint x="-1160" y="861" />
              <mxPoint x="-1160" y="819" />
            </Array>
            <mxPoint x="-1500" y="445.24" as="targetPoint" />
          </mxGeometry>
        </mxCell>
        <mxCell id="QMpJwfJOF2SySF0Yha2X-29" style="edgeStyle=orthogonalEdgeStyle;shape=connector;rounded=0;orthogonalLoop=1;jettySize=auto;html=1;entryX=0.25;entryY=1;entryDx=0;entryDy=0;strokeColor=default;align=center;verticalAlign=middle;fontFamily=Helvetica;fontSize=11;fontColor=default;labelBackgroundColor=default;endArrow=none;endFill=1;endSize=24;startArrow=open;startFill=0;startSize=12;exitX=1.005;exitY=0.638;exitDx=0;exitDy=0;exitPerimeter=0;" parent="WIyWlLk6GJQsqaUBKTNV-1" source="QMpJwfJOF2SySF0Yha2X-122" target="zkfFHV4jXpPFQw0GAbJ--0" edge="1">
          <mxGeometry relative="1" as="geometry">
            <mxPoint x="-1039.88" y="209.40000000000032" as="targetPoint" />
            <mxPoint x="-1790" y="734.7565217391304" as="sourcePoint" />
          </mxGeometry>
        </mxCell>
        <mxCell id="QMpJwfJOF2SySF0Yha2X-41" value="&lt;span style=&quot;font-weight: normal;&quot;&gt;Profile&lt;/span&gt;" style="swimlane;fontStyle=1;align=center;verticalAlign=top;childLayout=stackLayout;horizontal=1;startSize=26;horizontalStack=0;resizeParent=1;resizeParentMax=0;resizeLast=0;collapsible=1;marginBottom=0;whiteSpace=wrap;html=1;" parent="WIyWlLk6GJQsqaUBKTNV-1" vertex="1">
          <mxGeometry x="-1452.6" y="250" width="260" height="590" as="geometry" />
        </mxCell>
        <mxCell id="QMpJwfJOF2SySF0Yha2X-42" value="&lt;div&gt;&lt;span style=&quot;text-wrap-mode: nowrap; background-color: transparent; color: light-dark(rgb(0, 0, 0), rgb(255, 255, 255));&quot;&gt;- email: String&lt;/span&gt;&lt;/div&gt;&lt;div&gt;&lt;span style=&quot;background-color: transparent; color: light-dark(rgb(0, 0, 0), rgb(255, 255, 255));&quot;&gt;- hashedPassword: String&lt;/span&gt;&lt;/div&gt;&lt;div&gt;&lt;span style=&quot;text-wrap-mode: nowrap; background-color: transparent; color: light-dark(rgb(0, 0, 0), rgb(255, 255, 255));&quot;&gt;- nickname: String&lt;/span&gt;&lt;/div&gt;&lt;div&gt;&lt;span style=&quot;text-wrap-mode: nowrap; background-color: transparent; color: light-dark(rgb(0, 0, 0), rgb(255, 255, 255));&quot;&gt;- bio: String&lt;/span&gt;&lt;/div&gt;&lt;div&gt;- isOnline: Boolean&lt;/div&gt;&lt;div&gt;- currentGame: String&lt;/div&gt;&lt;div&gt;&lt;span style=&quot;text-wrap-mode: nowrap; background-color: transparent; color: light-dark(rgb(0, 0, 0), rgb(255, 255, 255));&quot;&gt;- winLossRatio: double&lt;/span&gt;&lt;/div&gt;&lt;div&gt;&lt;span style=&quot;background-color: transparent; color: light-dark(rgb(0, 0, 0), rgb(255, 255, 255));&quot;&gt;- gamesPlayed: GameHistory&lt;/span&gt;&lt;/div&gt;&lt;div&gt;&lt;span style=&quot;text-wrap-mode: nowrap;&quot;&gt;- profilePic: BufferedImage&lt;/span&gt;&lt;/div&gt;&lt;div&gt;&lt;span style=&quot;text-wrap-mode: nowrap;&quot;&gt;- username: String&lt;/span&gt;&lt;/div&gt;&lt;div&gt;&lt;span style=&quot;text-wrap-mode: nowrap;&quot;&gt;- id: long&lt;/span&gt;&lt;/div&gt;" style="text;strokeColor=none;fillColor=none;align=left;verticalAlign=top;spacingLeft=4;spacingRight=4;overflow=hidden;rotatable=0;points=[[0,0.5],[1,0.5]];portConstraint=eastwest;whiteSpace=wrap;html=1;" parent="QMpJwfJOF2SySF0Yha2X-41" vertex="1">
          <mxGeometry y="26" width="260" height="244" as="geometry" />
        </mxCell>
        <mxCell id="QMpJwfJOF2SySF0Yha2X-43" value="" style="line;strokeWidth=1;fillColor=none;align=left;verticalAlign=middle;spacingTop=-1;spacingLeft=3;spacingRight=3;rotatable=0;labelPosition=right;points=[];portConstraint=eastwest;strokeColor=inherit;" parent="QMpJwfJOF2SySF0Yha2X-41" vertex="1">
          <mxGeometry y="270" width="260" height="8" as="geometry" />
        </mxCell>
        <mxCell id="QMpJwfJOF2SySF0Yha2X-44" value="&lt;span style=&quot;text-wrap-mode: nowrap;&quot;&gt;+ setIsOnline(Boolean): void&lt;/span&gt;&lt;div style=&quot;text-wrap-mode: nowrap;&quot;&gt;+ setCurrentGame(String): void&lt;/div&gt;&lt;div style=&quot;text-wrap-mode: nowrap;&quot;&gt;+ getCurrentStatus(): void&lt;/div&gt;&lt;div style=&quot;text-wrap-mode: nowrap;&quot;&gt;&lt;div style=&quot;text-wrap-mode: wrap;&quot;&gt;+ setBio(String): void&lt;/div&gt;&lt;div style=&quot;text-wrap-mode: wrap;&quot;&gt;+ getBio(): void&lt;/div&gt;&lt;/div&gt;&lt;div&gt;&lt;div&gt;+ setNickname(String): void&lt;/div&gt;&lt;div&gt;+ getNickname(): void&lt;br&gt;&lt;div&gt;+ addProfilePic(): void&lt;/div&gt;&lt;div&gt;+ getProfilePic(): void&lt;/div&gt;&lt;/div&gt;&lt;/div&gt;&lt;div&gt;&lt;div&gt;+ setUserName(String): void&lt;/div&gt;&lt;div&gt;+ setEmail(String): void&lt;/div&gt;&lt;div&gt;+ updateWinLossRatio(Boolean): void&lt;/div&gt;&lt;div&gt;+ setPassword(String): void&lt;/div&gt;&lt;div&gt;&lt;br&gt;&lt;/div&gt;&lt;/div&gt;" style="text;strokeColor=none;fillColor=none;align=left;verticalAlign=top;spacingLeft=4;spacingRight=4;overflow=hidden;rotatable=0;points=[[0,0.5],[1,0.5]];portConstraint=eastwest;whiteSpace=wrap;html=1;" parent="QMpJwfJOF2SySF0Yha2X-41" vertex="1">
          <mxGeometry y="278" width="260" height="312" as="geometry" />
        </mxCell>
        <mxCell id="QMpJwfJOF2SySF0Yha2X-45" value="&lt;span style=&quot;font-weight: normal;&quot;&gt;GameSessionManager&lt;/span&gt;" style="swimlane;fontStyle=1;align=center;verticalAlign=top;childLayout=stackLayout;horizontal=1;startSize=26;horizontalStack=0;resizeParent=1;resizeParentMax=0;resizeLast=0;collapsible=1;marginBottom=0;whiteSpace=wrap;html=1;" parent="WIyWlLk6GJQsqaUBKTNV-1" vertex="1">
          <mxGeometry x="-3110" y="290.76" width="350" height="150" as="geometry" />
        </mxCell>
        <mxCell id="QMpJwfJOF2SySF0Yha2X-46" value="&lt;div&gt;- sessions: Object&lt;/div&gt;" style="text;strokeColor=none;fillColor=none;align=left;verticalAlign=top;spacingLeft=4;spacingRight=4;overflow=hidden;rotatable=0;points=[[0,0.5],[1,0.5]];portConstraint=eastwest;whiteSpace=wrap;html=1;" parent="QMpJwfJOF2SySF0Yha2X-45" vertex="1">
          <mxGeometry y="26" width="350" height="26" as="geometry" />
        </mxCell>
        <mxCell id="QMpJwfJOF2SySF0Yha2X-47" value="" style="line;strokeWidth=1;fillColor=none;align=left;verticalAlign=middle;spacingTop=-1;spacingLeft=3;spacingRight=3;rotatable=0;labelPosition=right;points=[];portConstraint=eastwest;strokeColor=inherit;" parent="QMpJwfJOF2SySF0Yha2X-45" vertex="1">
          <mxGeometry y="52" width="350" height="8" as="geometry" />
        </mxCell>
        <mxCell id="QMpJwfJOF2SySF0Yha2X-48" value="&lt;div&gt;+ createSession(sessionID: str, players: arrayList&amp;lt;String&amp;gt;): int&lt;/div&gt;&lt;div&gt;+ addPlayer(sessionID: str, playerID: str): int&lt;/div&gt;&lt;div&gt;+ updateSessionState(sessionID: str, state: SessionState): int&lt;/div&gt;&lt;div&gt;+ removePlayer(sessionID: str, playerID: str): int&lt;/div&gt;&lt;div&gt;+ getSessionState(sessionID: str): SessionState&lt;/div&gt;" style="text;strokeColor=none;fillColor=none;align=left;verticalAlign=top;spacingLeft=4;spacingRight=4;overflow=hidden;rotatable=0;points=[[0,0.5],[1,0.5]];portConstraint=eastwest;whiteSpace=wrap;html=1;" parent="QMpJwfJOF2SySF0Yha2X-45" vertex="1">
          <mxGeometry y="60" width="350" height="90" as="geometry" />
        </mxCell>
        <mxCell id="QMpJwfJOF2SySF0Yha2X-49" value="&lt;span style=&quot;font-weight: normal;&quot;&gt;GameStateSynchronizer&lt;/span&gt;" style="swimlane;fontStyle=1;align=center;verticalAlign=top;childLayout=stackLayout;horizontal=1;startSize=26;horizontalStack=0;resizeParent=1;resizeParentMax=0;resizeLast=0;collapsible=1;marginBottom=0;whiteSpace=wrap;html=1;" parent="WIyWlLk6GJQsqaUBKTNV-1" vertex="1">
          <mxGeometry x="-3110" y="80.76" width="350" height="148" as="geometry" />
        </mxCell>
        <mxCell id="QMpJwfJOF2SySF0Yha2X-50" value="&lt;div&gt;- subscribers: Object&lt;/div&gt;&lt;div&gt;-messageQueue: ArrayList&amp;lt;Object&amp;gt;&lt;/div&gt;" style="text;strokeColor=none;fillColor=none;align=left;verticalAlign=top;spacingLeft=4;spacingRight=4;overflow=hidden;rotatable=0;points=[[0,0.5],[1,0.5]];portConstraint=eastwest;whiteSpace=wrap;html=1;" parent="QMpJwfJOF2SySF0Yha2X-49" vertex="1">
          <mxGeometry y="26" width="350" height="44" as="geometry" />
        </mxCell>
        <mxCell id="QMpJwfJOF2SySF0Yha2X-51" value="" style="line;strokeWidth=1;fillColor=none;align=left;verticalAlign=middle;spacingTop=-1;spacingLeft=3;spacingRight=3;rotatable=0;labelPosition=right;points=[];portConstraint=eastwest;strokeColor=inherit;" parent="QMpJwfJOF2SySF0Yha2X-49" vertex="1">
          <mxGeometry y="70" width="350" height="8" as="geometry" />
        </mxCell>
        <mxCell id="QMpJwfJOF2SySF0Yha2X-52" value="&lt;div&gt;+ subscribe(sessionID: str, playerID: str): int&lt;/div&gt;&lt;div&gt;+ broadcastState(sessionID: str, state: SessionState): int&lt;/div&gt;&lt;div&gt;+ sendUpdate(playerID: str, state: SessionState): int&lt;/div&gt;&lt;div&gt;+ rollbackState(sessionID: str, previousState: SessionState): int&lt;/div&gt;" style="text;strokeColor=none;fillColor=none;align=left;verticalAlign=top;spacingLeft=4;spacingRight=4;overflow=hidden;rotatable=0;points=[[0,0.5],[1,0.5]];portConstraint=eastwest;whiteSpace=wrap;html=1;" parent="QMpJwfJOF2SySF0Yha2X-49" vertex="1">
          <mxGeometry y="78" width="350" height="70" as="geometry" />
        </mxCell>
        <mxCell id="QMpJwfJOF2SySF0Yha2X-53" value="&lt;span style=&quot;font-weight: normal;&quot;&gt;AuthHandler&lt;/span&gt;" style="swimlane;fontStyle=1;align=center;verticalAlign=top;childLayout=stackLayout;horizontal=1;startSize=26;horizontalStack=0;resizeParent=1;resizeParentMax=0;resizeLast=0;collapsible=1;marginBottom=0;whiteSpace=wrap;html=1;" parent="WIyWlLk6GJQsqaUBKTNV-1" vertex="1">
          <mxGeometry x="-2460" y="-379.24" width="350" height="100" as="geometry" />
        </mxCell>
        <mxCell id="QMpJwfJOF2SySF0Yha2X-54" value="- db: DatabaseConnector" style="text;strokeColor=none;fillColor=none;align=left;verticalAlign=top;spacingLeft=4;spacingRight=4;overflow=hidden;rotatable=0;points=[[0,0.5],[1,0.5]];portConstraint=eastwest;whiteSpace=wrap;html=1;" parent="QMpJwfJOF2SySF0Yha2X-53" vertex="1">
          <mxGeometry y="26" width="350" height="26" as="geometry" />
        </mxCell>
        <mxCell id="QMpJwfJOF2SySF0Yha2X-55" value="" style="line;strokeWidth=1;fillColor=none;align=left;verticalAlign=middle;spacingTop=-1;spacingLeft=3;spacingRight=3;rotatable=0;labelPosition=right;points=[];portConstraint=eastwest;strokeColor=inherit;" parent="QMpJwfJOF2SySF0Yha2X-53" vertex="1">
          <mxGeometry y="52" width="350" height="8" as="geometry" />
        </mxCell>
        <mxCell id="QMpJwfJOF2SySF0Yha2X-56" value="&lt;div&gt;+ authenticatePlayer(): str&lt;/div&gt;&lt;div&gt;- checkDatabase():&lt;/div&gt;" style="text;strokeColor=none;fillColor=none;align=left;verticalAlign=top;spacingLeft=4;spacingRight=4;overflow=hidden;rotatable=0;points=[[0,0.5],[1,0.5]];portConstraint=eastwest;whiteSpace=wrap;html=1;" parent="QMpJwfJOF2SySF0Yha2X-53" vertex="1">
          <mxGeometry y="60" width="350" height="40" as="geometry" />
        </mxCell>
        <mxCell id="QMpJwfJOF2SySF0Yha2X-57" value="&lt;span style=&quot;font-weight: normal;&quot;&gt;DatabaseConnector&lt;/span&gt;" style="swimlane;fontStyle=1;align=center;verticalAlign=top;childLayout=stackLayout;horizontal=1;startSize=26;horizontalStack=0;resizeParent=1;resizeParentMax=0;resizeLast=0;collapsible=1;marginBottom=0;whiteSpace=wrap;html=1;" parent="WIyWlLk6GJQsqaUBKTNV-1" vertex="1">
          <mxGeometry x="-2460" y="-199.24" width="350" height="130" as="geometry" />
        </mxCell>
        <mxCell id="QMpJwfJOF2SySF0Yha2X-58" value="&lt;div&gt;+ checkUser(username: str, password: str): Object&lt;/div&gt;&lt;div&gt;+ addUser(username: str, password: str): Object&lt;/div&gt;&lt;div&gt;+ recordMatch(gameID: str, gameData: GameResult): int&lt;/div&gt;&lt;div&gt;+ checkLeaderboards():&lt;/div&gt;&lt;div&gt;+ checkMatchHistory():&lt;/div&gt;&lt;div&gt;+ checkPlayers():&lt;/div&gt;" style="text;strokeColor=none;fillColor=none;align=left;verticalAlign=top;spacingLeft=4;spacingRight=4;overflow=hidden;rotatable=0;points=[[0,0.5],[1,0.5]];portConstraint=eastwest;whiteSpace=wrap;html=1;" parent="QMpJwfJOF2SySF0Yha2X-57" vertex="1">
          <mxGeometry y="26" width="350" height="104" as="geometry" />
        </mxCell>
        <mxCell id="QMpJwfJOF2SySF0Yha2X-59" value="SessionState could be an enum that represents various states the the session could be in." style="shape=note2;boundedLbl=1;whiteSpace=wrap;html=1;size=14;verticalAlign=top;align=center;" parent="WIyWlLk6GJQsqaUBKTNV-1" vertex="1">
          <mxGeometry x="-2720" y="350.76" width="150" height="90" as="geometry" />
        </mxCell>
        <mxCell id="QMpJwfJOF2SySF0Yha2X-60" value="" style="endArrow=none;dashed=1;html=1;rounded=0;entryX=0;entryY=0.5;entryDx=0;entryDy=0;entryPerimeter=0;exitX=1;exitY=0.5;exitDx=0;exitDy=0;" parent="WIyWlLk6GJQsqaUBKTNV-1" source="QMpJwfJOF2SySF0Yha2X-48" target="QMpJwfJOF2SySF0Yha2X-59" edge="1">
          <mxGeometry width="50" height="50" relative="1" as="geometry">
            <mxPoint x="-2820" y="480.76" as="sourcePoint" />
            <mxPoint x="-2770" y="430.76" as="targetPoint" />
          </mxGeometry>
        </mxCell>
        <mxCell id="QMpJwfJOF2SySF0Yha2X-61" value="Many methods return an int value to signify if the method had an error." style="shape=note2;boundedLbl=1;whiteSpace=wrap;html=1;size=14;verticalAlign=top;align=center;" parent="WIyWlLk6GJQsqaUBKTNV-1" vertex="1">
          <mxGeometry x="-2680" y="20.76" width="150" height="70" as="geometry" />
        </mxCell>
        <mxCell id="QMpJwfJOF2SySF0Yha2X-62" value="&amp;lt;&amp;lt;Interface&amp;gt;&amp;gt;&lt;br&gt;MessageParser" style="swimlane;fontStyle=0;childLayout=stackLayout;horizontal=1;startSize=30;horizontalStack=0;resizeParent=1;resizeParentMax=0;resizeLast=0;collapsible=1;marginBottom=0;whiteSpace=wrap;html=1;" parent="WIyWlLk6GJQsqaUBKTNV-1" vertex="1">
          <mxGeometry x="-2390" y="-9.239999999999998" width="210" height="120" as="geometry">
            <mxRectangle x="160" y="90" width="50" height="40" as="alternateBounds" />
          </mxGeometry>
        </mxCell>
        <mxCell id="QMpJwfJOF2SySF0Yha2X-63" value="+ String encode(Object message)" style="text;strokeColor=none;fillColor=none;align=left;verticalAlign=middle;spacingLeft=4;spacingRight=4;overflow=hidden;points=[[0,0.5],[1,0.5]];portConstraint=eastwest;rotatable=0;whiteSpace=wrap;html=1;" parent="QMpJwfJOF2SySF0Yha2X-62" vertex="1">
          <mxGeometry y="30" width="210" height="30" as="geometry" />
        </mxCell>
        <mxCell id="QMpJwfJOF2SySF0Yha2X-64" value="+ Object decode(String message)" style="text;strokeColor=none;fillColor=none;align=left;verticalAlign=middle;spacingLeft=4;spacingRight=4;overflow=hidden;points=[[0,0.5],[1,0.5]];portConstraint=eastwest;rotatable=0;whiteSpace=wrap;html=1;" parent="QMpJwfJOF2SySF0Yha2X-62" vertex="1">
          <mxGeometry y="60" width="210" height="30" as="geometry" />
        </mxCell>
        <mxCell id="QMpJwfJOF2SySF0Yha2X-65" value="+ void setFormat(String Format)" style="text;strokeColor=none;fillColor=none;align=left;verticalAlign=middle;spacingLeft=4;spacingRight=4;overflow=hidden;points=[[0,0.5],[1,0.5]];portConstraint=eastwest;rotatable=0;whiteSpace=wrap;html=1;" parent="QMpJwfJOF2SySF0Yha2X-62" vertex="1">
          <mxGeometry y="90" width="210" height="30" as="geometry" />
        </mxCell>
        <mxCell id="QMpJwfJOF2SySF0Yha2X-66" value="JSONParser" style="swimlane;fontStyle=0;childLayout=stackLayout;horizontal=1;startSize=30;horizontalStack=0;resizeParent=1;resizeParentMax=0;resizeLast=0;collapsible=1;marginBottom=0;whiteSpace=wrap;html=1;" parent="WIyWlLk6GJQsqaUBKTNV-1" vertex="1">
          <mxGeometry x="-2580" y="200.76" width="190" height="90" as="geometry" />
        </mxCell>
        <mxCell id="QMpJwfJOF2SySF0Yha2X-67" value="+ String API_enconde(Object message)" style="text;strokeColor=none;fillColor=none;align=left;verticalAlign=middle;spacingLeft=4;spacingRight=4;overflow=hidden;points=[[0,0.5],[1,0.5]];portConstraint=eastwest;rotatable=0;whiteSpace=wrap;html=1;" parent="QMpJwfJOF2SySF0Yha2X-66" vertex="1">
          <mxGeometry y="30" width="190" height="30" as="geometry" />
        </mxCell>
        <mxCell id="QMpJwfJOF2SySF0Yha2X-68" value="+ Object decode(String message)" style="text;strokeColor=none;fillColor=none;align=left;verticalAlign=middle;spacingLeft=4;spacingRight=4;overflow=hidden;points=[[0,0.5],[1,0.5]];portConstraint=eastwest;rotatable=0;whiteSpace=wrap;html=1;" parent="QMpJwfJOF2SySF0Yha2X-66" vertex="1">
          <mxGeometry y="60" width="190" height="30" as="geometry" />
        </mxCell>
        <mxCell id="QMpJwfJOF2SySF0Yha2X-69" style="edgeStyle=orthogonalEdgeStyle;html=1;exitX=0.5;exitY=0;exitDx=0;exitDy=0;dashed=1;" parent="WIyWlLk6GJQsqaUBKTNV-1" source="QMpJwfJOF2SySF0Yha2X-70" target="QMpJwfJOF2SySF0Yha2X-65" edge="1">
          <mxGeometry relative="1" as="geometry" />
        </mxCell>
        <mxCell id="QMpJwfJOF2SySF0Yha2X-70" value="BinaryParser" style="swimlane;fontStyle=0;childLayout=stackLayout;horizontal=1;startSize=30;horizontalStack=0;resizeParent=1;resizeParentMax=0;resizeLast=0;collapsible=1;marginBottom=0;whiteSpace=wrap;html=1;" parent="WIyWlLk6GJQsqaUBKTNV-1" vertex="1">
          <mxGeometry x="-2180" y="200.76" width="230" height="100" as="geometry" />
        </mxCell>
        <mxCell id="QMpJwfJOF2SySF0Yha2X-71" value="+ Object decode(String message)&amp;nbsp;" style="text;strokeColor=none;fillColor=none;align=left;verticalAlign=middle;spacingLeft=4;spacingRight=4;overflow=hidden;points=[[0,0.5],[1,0.5]];portConstraint=eastwest;rotatable=0;whiteSpace=wrap;html=1;" parent="QMpJwfJOF2SySF0Yha2X-70" vertex="1">
          <mxGeometry y="30" width="230" height="30" as="geometry" />
        </mxCell>
        <mxCell id="QMpJwfJOF2SySF0Yha2X-72" value="+ boolean validateMessage(String message)" style="text;strokeColor=none;fillColor=none;align=left;verticalAlign=middle;spacingLeft=4;spacingRight=4;overflow=hidden;points=[[0,0.5],[1,0.5]];portConstraint=eastwest;rotatable=0;whiteSpace=wrap;html=1;" parent="QMpJwfJOF2SySF0Yha2X-70" vertex="1">
          <mxGeometry y="60" width="230" height="40" as="geometry" />
        </mxCell>
        <mxCell id="QMpJwfJOF2SySF0Yha2X-73" style="edgeStyle=orthogonalEdgeStyle;html=1;exitX=0.5;exitY=0;exitDx=0;exitDy=0;entryX=0.275;entryY=0.987;entryDx=0;entryDy=0;entryPerimeter=0;dashed=1;" parent="WIyWlLk6GJQsqaUBKTNV-1" source="QMpJwfJOF2SySF0Yha2X-66" target="QMpJwfJOF2SySF0Yha2X-65" edge="1">
          <mxGeometry relative="1" as="geometry" />
        </mxCell>
        <mxCell id="QMpJwfJOF2SySF0Yha2X-74" value="Validator" style="swimlane;fontStyle=0;childLayout=stackLayout;horizontal=1;startSize=20;horizontalStack=0;resizeParent=1;resizeParentMax=0;resizeLast=0;collapsible=1;marginBottom=0;whiteSpace=wrap;html=1;" parent="WIyWlLk6GJQsqaUBKTNV-1" vertex="1">
          <mxGeometry x="-2420" y="370.76" width="270" height="50" as="geometry" />
        </mxCell>
        <mxCell id="QMpJwfJOF2SySF0Yha2X-75" value="+ boolean validateJSON(String messages) //Ensures all the JSON data format is correct" style="text;strokeColor=none;fillColor=none;align=left;verticalAlign=middle;spacingLeft=4;spacingRight=4;overflow=hidden;points=[[0,0.5],[1,0.5]];portConstraint=eastwest;rotatable=0;whiteSpace=wrap;html=1;" parent="QMpJwfJOF2SySF0Yha2X-74" vertex="1">
          <mxGeometry y="20" width="270" height="30" as="geometry" />
        </mxCell>
        <mxCell id="QMpJwfJOF2SySF0Yha2X-76" style="edgeStyle=orthogonalEdgeStyle;html=1;entryX=0.33;entryY=-0.06;entryDx=0;entryDy=0;entryPerimeter=0;dashed=1;" parent="WIyWlLk6GJQsqaUBKTNV-1" source="QMpJwfJOF2SySF0Yha2X-66" target="QMpJwfJOF2SySF0Yha2X-74" edge="1">
          <mxGeometry relative="1" as="geometry" />
        </mxCell>
        <mxCell id="QMpJwfJOF2SySF0Yha2X-77" value="Uses" style="edgeLabel;html=1;align=center;verticalAlign=middle;resizable=0;points=[];" parent="QMpJwfJOF2SySF0Yha2X-76" vertex="1" connectable="0">
          <mxGeometry x="-0.0515" y="-3" relative="1" as="geometry">
            <mxPoint as="offset" />
          </mxGeometry>
        </mxCell>
        <mxCell id="QMpJwfJOF2SySF0Yha2X-78" style="edgeStyle=orthogonalEdgeStyle;html=1;entryX=0.641;entryY=0;entryDx=0;entryDy=0;entryPerimeter=0;dashed=1;" parent="WIyWlLk6GJQsqaUBKTNV-1" source="QMpJwfJOF2SySF0Yha2X-70" target="QMpJwfJOF2SySF0Yha2X-74" edge="1">
          <mxGeometry relative="1" as="geometry" />
        </mxCell>
        <mxCell id="QMpJwfJOF2SySF0Yha2X-79" value="Uses" style="edgeLabel;html=1;align=center;verticalAlign=middle;resizable=0;points=[];" parent="QMpJwfJOF2SySF0Yha2X-78" vertex="1" connectable="0">
          <mxGeometry x="-0.029" y="2" relative="1" as="geometry">
            <mxPoint as="offset" />
          </mxGeometry>
        </mxCell>
        <mxCell id="QMpJwfJOF2SySF0Yha2X-80" value="Use" style="endArrow=open;endSize=12;dashed=1;html=1;rounded=0;fontSize=12;exitX=0.75;exitY=0;exitDx=0;exitDy=0;entryX=1.007;entryY=0.983;entryDx=0;entryDy=0;entryPerimeter=0;edgeStyle=orthogonalEdgeStyle;" parent="WIyWlLk6GJQsqaUBKTNV-1" source="QMpJwfJOF2SySF0Yha2X-70" target="QMpJwfJOF2SySF0Yha2X-58" edge="1">
          <mxGeometry width="160" relative="1" as="geometry">
            <mxPoint x="-2430" y="40.760000000000005" as="sourcePoint" />
            <mxPoint x="-2270" y="40.760000000000005" as="targetPoint" />
          </mxGeometry>
        </mxCell>
        <mxCell id="QMpJwfJOF2SySF0Yha2X-81" value="&lt;span style=&quot;font-weight: normal;&quot;&gt;PlayerHandler&lt;/span&gt;" style="swimlane;fontStyle=1;align=center;verticalAlign=top;childLayout=stackLayout;horizontal=1;startSize=26;horizontalStack=0;resizeParent=1;resizeParentMax=0;resizeLast=0;collapsible=1;marginBottom=0;whiteSpace=wrap;html=1;" parent="WIyWlLk6GJQsqaUBKTNV-1" vertex="1">
          <mxGeometry x="-2840" y="-159.24" width="280" height="130" as="geometry" />
        </mxCell>
        <mxCell id="QMpJwfJOF2SySF0Yha2X-82" value="- socket: int" style="text;strokeColor=none;fillColor=none;align=left;verticalAlign=top;spacingLeft=4;spacingRight=4;overflow=hidden;rotatable=0;points=[[0,0.5],[1,0.5]];portConstraint=eastwest;whiteSpace=wrap;html=1;" parent="QMpJwfJOF2SySF0Yha2X-81" vertex="1">
          <mxGeometry y="26" width="280" height="26" as="geometry" />
        </mxCell>
        <mxCell id="QMpJwfJOF2SySF0Yha2X-83" value="" style="line;strokeWidth=1;fillColor=none;align=left;verticalAlign=middle;spacingTop=-1;spacingLeft=3;spacingRight=3;rotatable=0;labelPosition=right;points=[];portConstraint=eastwest;strokeColor=inherit;" parent="QMpJwfJOF2SySF0Yha2X-81" vertex="1">
          <mxGeometry y="52" width="280" height="8" as="geometry" />
        </mxCell>
        <mxCell id="QMpJwfJOF2SySF0Yha2X-84" value="&lt;div&gt;+ sendMessageToClient():&lt;/div&gt;&lt;div&gt;+ sendMessageToGameSynchronizer():&lt;/div&gt;&lt;div&gt;- encodeMessage():&lt;/div&gt;&lt;div&gt;- decodeMessage():&lt;/div&gt;" style="text;strokeColor=none;fillColor=none;align=left;verticalAlign=top;spacingLeft=4;spacingRight=4;overflow=hidden;rotatable=0;points=[[0,0.5],[1,0.5]];portConstraint=eastwest;whiteSpace=wrap;html=1;" parent="QMpJwfJOF2SySF0Yha2X-81" vertex="1">
          <mxGeometry y="60" width="280" height="70" as="geometry" />
        </mxCell>
        <mxCell id="QMpJwfJOF2SySF0Yha2X-85" value="Use" style="endArrow=open;endSize=12;dashed=1;html=1;rounded=0;fontSize=12;exitX=1;exitY=0.5;exitDx=0;exitDy=0;entryX=0;entryY=0.5;entryDx=0;entryDy=0;edgeStyle=orthogonalEdgeStyle;" parent="WIyWlLk6GJQsqaUBKTNV-1" source="QMpJwfJOF2SySF0Yha2X-82" target="QMpJwfJOF2SySF0Yha2X-64" edge="1">
          <mxGeometry width="160" relative="1" as="geometry">
            <mxPoint x="-2660" y="40.760000000000005" as="sourcePoint" />
            <mxPoint x="-2500" y="40.760000000000005" as="targetPoint" />
          </mxGeometry>
        </mxCell>
        <mxCell id="QMpJwfJOF2SySF0Yha2X-86" value="Use" style="endArrow=open;endSize=12;dashed=1;html=1;rounded=0;fontSize=12;curved=1;exitX=0.499;exitY=1.018;exitDx=0;exitDy=0;exitPerimeter=0;entryX=0.5;entryY=0;entryDx=0;entryDy=0;" parent="WIyWlLk6GJQsqaUBKTNV-1" source="QMpJwfJOF2SySF0Yha2X-56" target="QMpJwfJOF2SySF0Yha2X-57" edge="1">
          <mxGeometry width="160" relative="1" as="geometry">
            <mxPoint x="-2370" y="-229.24" as="sourcePoint" />
            <mxPoint x="-2210" y="-229.24" as="targetPoint" />
          </mxGeometry>
        </mxCell>
        <mxCell id="QMpJwfJOF2SySF0Yha2X-87" value="" style="endArrow=open;endFill=1;endSize=12;html=1;rounded=0;fontSize=12;curved=1;entryX=0.5;entryY=0;entryDx=0;entryDy=0;exitX=0.503;exitY=1;exitDx=0;exitDy=0;exitPerimeter=0;" parent="WIyWlLk6GJQsqaUBKTNV-1" source="QMpJwfJOF2SySF0Yha2X-99" target="QMpJwfJOF2SySF0Yha2X-81" edge="1">
          <mxGeometry width="160" relative="1" as="geometry">
            <mxPoint x="-2700" y="-209.24" as="sourcePoint" />
            <mxPoint x="-2510" y="-184.91000000000008" as="targetPoint" />
          </mxGeometry>
        </mxCell>
        <mxCell id="QMpJwfJOF2SySF0Yha2X-88" value="" style="endArrow=none;startArrow=none;html=1;rounded=0;fontSize=12;startSize=8;endSize=8;entryX=0;entryY=0.5;entryDx=0;entryDy=0;exitX=1;exitY=0.25;exitDx=0;exitDy=0;edgeStyle=orthogonalEdgeStyle;startFill=0;" parent="WIyWlLk6GJQsqaUBKTNV-1" source="QMpJwfJOF2SySF0Yha2X-96" target="QMpJwfJOF2SySF0Yha2X-54" edge="1">
          <mxGeometry width="50" height="50" relative="1" as="geometry">
            <mxPoint x="-2597.5" y="-264.24" as="sourcePoint" />
            <mxPoint x="-2630" y="-209.24" as="targetPoint" />
          </mxGeometry>
        </mxCell>
        <mxCell id="QMpJwfJOF2SySF0Yha2X-89" value="" style="endArrow=none;startArrow=none;html=1;rounded=0;fontSize=12;startSize=8;endSize=8;curved=1;entryX=0.5;entryY=0;entryDx=0;entryDy=0;exitX=0.497;exitY=1;exitDx=0;exitDy=0;exitPerimeter=0;startFill=0;" parent="WIyWlLk6GJQsqaUBKTNV-1" source="QMpJwfJOF2SySF0Yha2X-52" target="QMpJwfJOF2SySF0Yha2X-45" edge="1">
          <mxGeometry width="50" height="50" relative="1" as="geometry">
            <mxPoint x="-2950" y="290.76" as="sourcePoint" />
            <mxPoint x="-2900" y="240.76" as="targetPoint" />
          </mxGeometry>
        </mxCell>
        <mxCell id="QMpJwfJOF2SySF0Yha2X-90" value="" style="endArrow=none;startArrow=none;html=1;rounded=0;fontSize=12;startSize=8;endSize=8;exitX=0.5;exitY=0;exitDx=0;exitDy=0;entryX=0;entryY=0.5;entryDx=0;entryDy=0;edgeStyle=orthogonalEdgeStyle;startFill=0;" parent="WIyWlLk6GJQsqaUBKTNV-1" source="QMpJwfJOF2SySF0Yha2X-49" target="QMpJwfJOF2SySF0Yha2X-82" edge="1">
          <mxGeometry width="50" height="50" relative="1" as="geometry">
            <mxPoint x="-2920" y="60.760000000000005" as="sourcePoint" />
            <mxPoint x="-2870" y="10.760000000000002" as="targetPoint" />
          </mxGeometry>
        </mxCell>
        <mxCell id="QMpJwfJOF2SySF0Yha2X-91" value="" style="endArrow=none;startArrow=none;html=1;rounded=0;fontSize=12;startSize=8;endSize=8;curved=1;entryX=0.498;entryY=0.989;entryDx=0;entryDy=0;exitX=0.5;exitY=0;exitDx=0;exitDy=0;entryPerimeter=0;startFill=0;" parent="WIyWlLk6GJQsqaUBKTNV-1" source="QMpJwfJOF2SySF0Yha2X-96" target="QMpJwfJOF2SySF0Yha2X-95" edge="1">
          <mxGeometry width="50" height="50" relative="1" as="geometry">
            <mxPoint x="-2700" y="-279.24" as="sourcePoint" />
            <mxPoint x="-2701.25" y="-359.24" as="targetPoint" />
          </mxGeometry>
        </mxCell>
        <mxCell id="QMpJwfJOF2SySF0Yha2X-92" value="&lt;div&gt;&lt;span style=&quot;font-weight: normal;&quot;&gt;ServerController&lt;/span&gt;&lt;/div&gt;" style="swimlane;fontStyle=1;align=center;verticalAlign=top;childLayout=stackLayout;horizontal=1;startSize=26;horizontalStack=0;resizeParent=1;resizeParentMax=0;resizeLast=0;collapsible=1;marginBottom=0;whiteSpace=wrap;html=1;" parent="WIyWlLk6GJQsqaUBKTNV-1" vertex="1">
          <mxGeometry x="-2805" y="-499.24" width="210" height="124" as="geometry" />
        </mxCell>
        <mxCell id="QMpJwfJOF2SySF0Yha2X-93" value="&lt;div&gt;+ playerSessions: ArrayList&amp;lt;String&amp;gt;&lt;/div&gt;" style="text;strokeColor=none;fillColor=none;align=left;verticalAlign=top;spacingLeft=4;spacingRight=4;overflow=hidden;rotatable=0;points=[[0,0.5],[1,0.5]];portConstraint=eastwest;whiteSpace=wrap;html=1;" parent="QMpJwfJOF2SySF0Yha2X-92" vertex="1">
          <mxGeometry y="26" width="210" height="26" as="geometry" />
        </mxCell>
        <mxCell id="QMpJwfJOF2SySF0Yha2X-94" value="" style="line;strokeWidth=1;fillColor=none;align=left;verticalAlign=middle;spacingTop=-1;spacingLeft=3;spacingRight=3;rotatable=0;labelPosition=right;points=[];portConstraint=eastwest;strokeColor=inherit;" parent="QMpJwfJOF2SySF0Yha2X-92" vertex="1">
          <mxGeometry y="52" width="210" height="8" as="geometry" />
        </mxCell>
        <mxCell id="QMpJwfJOF2SySF0Yha2X-95" value="&lt;div&gt;+ makeSession():&lt;/div&gt;&lt;div&gt;+ handleClienRequest():&lt;br&gt;+ validateClient():&lt;/div&gt;&lt;div&gt;+ fetchLeaderboard():&lt;/div&gt;" style="text;strokeColor=none;fillColor=none;align=left;verticalAlign=top;spacingLeft=4;spacingRight=4;overflow=hidden;rotatable=0;points=[[0,0.5],[1,0.5]];portConstraint=eastwest;whiteSpace=wrap;html=1;" parent="QMpJwfJOF2SySF0Yha2X-92" vertex="1">
          <mxGeometry y="60" width="210" height="64" as="geometry" />
        </mxCell>
        <mxCell id="QMpJwfJOF2SySF0Yha2X-96" value="&lt;span style=&quot;font-weight: normal;&quot;&gt;NetworkManager&lt;/span&gt;" style="swimlane;fontStyle=1;align=center;verticalAlign=top;childLayout=stackLayout;horizontal=1;startSize=26;horizontalStack=0;resizeParent=1;resizeParentMax=0;resizeLast=0;collapsible=1;marginBottom=0;whiteSpace=wrap;html=1;" parent="WIyWlLk6GJQsqaUBKTNV-1" vertex="1">
          <mxGeometry x="-2807.5" y="-319.24" width="215" height="114" as="geometry" />
        </mxCell>
        <mxCell id="QMpJwfJOF2SySF0Yha2X-97" value="&lt;div&gt;+ playerSessions: ArrayList&amp;lt;String&amp;gt;&lt;/div&gt;" style="text;strokeColor=none;fillColor=none;align=left;verticalAlign=top;spacingLeft=4;spacingRight=4;overflow=hidden;rotatable=0;points=[[0,0.5],[1,0.5]];portConstraint=eastwest;whiteSpace=wrap;html=1;" parent="QMpJwfJOF2SySF0Yha2X-96" vertex="1">
          <mxGeometry y="26" width="215" height="26" as="geometry" />
        </mxCell>
        <mxCell id="QMpJwfJOF2SySF0Yha2X-98" value="" style="line;strokeWidth=1;fillColor=none;align=left;verticalAlign=middle;spacingTop=-1;spacingLeft=3;spacingRight=3;rotatable=0;labelPosition=right;points=[];portConstraint=eastwest;strokeColor=inherit;" parent="QMpJwfJOF2SySF0Yha2X-96" vertex="1">
          <mxGeometry y="52" width="215" height="8" as="geometry" />
        </mxCell>
        <mxCell id="QMpJwfJOF2SySF0Yha2X-99" value="&lt;div&gt;+ handleDisconnection():&lt;/div&gt;&lt;div&gt;+ sessionRequest():&lt;/div&gt;&lt;div&gt;+ routeRequest():&lt;/div&gt;" style="text;strokeColor=none;fillColor=none;align=left;verticalAlign=top;spacingLeft=4;spacingRight=4;overflow=hidden;rotatable=0;points=[[0,0.5],[1,0.5]];portConstraint=eastwest;whiteSpace=wrap;html=1;" parent="QMpJwfJOF2SySF0Yha2X-96" vertex="1">
          <mxGeometry y="60" width="215" height="54" as="geometry" />
        </mxCell>
        <mxCell id="QMpJwfJOF2SySF0Yha2X-106" style="rounded=0;orthogonalLoop=1;jettySize=auto;html=1;exitX=0;exitY=1;exitDx=0;exitDy=0;entryX=0.598;entryY=0.019;entryDx=0;entryDy=0;endArrow=open;endFill=0;entryPerimeter=0;edgeStyle=orthogonalEdgeStyle;" parent="WIyWlLk6GJQsqaUBKTNV-1" source="QMpJwfJOF2SySF0Yha2X-107" target="QMpJwfJOF2SySF0Yha2X-119" edge="1">
          <mxGeometry relative="1" as="geometry">
            <Array as="points">
              <mxPoint x="-2460" y="980" />
              <mxPoint x="-2460" y="1030" />
              <mxPoint x="-2304" y="1030" />
            </Array>
          </mxGeometry>
        </mxCell>
        <mxCell id="QMpJwfJOF2SySF0Yha2X-107" value="Matchmaking" style="swimlane;fontStyle=0;align=center;verticalAlign=top;childLayout=stackLayout;horizontal=1;startSize=26;horizontalStack=0;resizeParent=1;resizeLast=0;collapsible=1;marginBottom=0;rounded=0;shadow=0;strokeWidth=1;" parent="WIyWlLk6GJQsqaUBKTNV-1" vertex="1">
          <mxGeometry x="-2480" y="760" width="240" height="220" as="geometry">
            <mxRectangle x="230" y="140" width="160" height="26" as="alternateBounds" />
          </mxGeometry>
        </mxCell>
        <mxCell id="QMpJwfJOF2SySF0Yha2X-108" value="- queue: Queue&#xa;- matchFound: Boolean" style="text;align=left;verticalAlign=top;spacingLeft=4;spacingRight=4;overflow=hidden;rotatable=0;points=[[0,0.5],[1,0.5]];portConstraint=eastwest;" parent="QMpJwfJOF2SySF0Yha2X-107" vertex="1">
          <mxGeometry y="26" width="240" height="64" as="geometry" />
        </mxCell>
        <mxCell id="QMpJwfJOF2SySF0Yha2X-109" value="" style="line;html=1;strokeWidth=1;align=left;verticalAlign=middle;spacingTop=-1;spacingLeft=3;spacingRight=3;rotatable=0;labelPosition=right;points=[];portConstraint=eastwest;" parent="QMpJwfJOF2SySF0Yha2X-107" vertex="1">
          <mxGeometry y="90" width="240" height="8" as="geometry" />
        </mxCell>
        <mxCell id="QMpJwfJOF2SySF0Yha2X-110" value="+ findMatch(): Game&#xa;+ displayMatchConfirmation() : String&#xa;+ penaltyTime() : int&#xa;+ friendInvite(): Player&#xa;+ inviteAccepted(): Game&#xa;+ addToQueue(args: str): void&#xa;+ removeFromQueue(args: str): void&#xa;" style="text;align=left;verticalAlign=top;spacingLeft=4;spacingRight=4;overflow=hidden;rotatable=0;points=[[0,0.5],[1,0.5]];portConstraint=eastwest;" parent="QMpJwfJOF2SySF0Yha2X-107" vertex="1">
          <mxGeometry y="98" width="240" height="122" as="geometry" />
        </mxCell>
        <mxCell id="QMpJwfJOF2SySF0Yha2X-111" value="Rank" style="swimlane;fontStyle=0;align=center;verticalAlign=top;childLayout=stackLayout;horizontal=1;startSize=26;horizontalStack=0;resizeParent=1;resizeLast=0;collapsible=1;marginBottom=0;rounded=0;shadow=0;strokeWidth=1;" parent="WIyWlLk6GJQsqaUBKTNV-1" vertex="1">
          <mxGeometry x="-2530" y="1322.8" width="250" height="160" as="geometry">
            <mxRectangle x="230" y="140" width="160" height="26" as="alternateBounds" />
          </mxGeometry>
        </mxCell>
        <mxCell id="QMpJwfJOF2SySF0Yha2X-112" value="- rankNumber: int&#xa;- rankName: String&#xa;- ratingLowerBound: int&#xa;- ratingUpperBound: int" style="text;align=left;verticalAlign=top;spacingLeft=4;spacingRight=4;overflow=hidden;rotatable=0;points=[[0,0.5],[1,0.5]];portConstraint=eastwest;" parent="QMpJwfJOF2SySF0Yha2X-111" vertex="1">
          <mxGeometry y="26" width="250" height="74" as="geometry" />
        </mxCell>
        <mxCell id="QMpJwfJOF2SySF0Yha2X-113" value="" style="line;html=1;strokeWidth=1;align=left;verticalAlign=middle;spacingTop=-1;spacingLeft=3;spacingRight=3;rotatable=0;labelPosition=right;points=[];portConstraint=eastwest;" parent="QMpJwfJOF2SySF0Yha2X-111" vertex="1">
          <mxGeometry y="100" width="250" height="8" as="geometry" />
        </mxCell>
        <mxCell id="QMpJwfJOF2SySF0Yha2X-114" value="+ updateRank(player: Player, rating: int): void&#xa;+ getRank(): int" style="text;align=left;verticalAlign=top;spacingLeft=4;spacingRight=4;overflow=hidden;rotatable=0;points=[[0,0.5],[1,0.5]];portConstraint=eastwest;" parent="QMpJwfJOF2SySF0Yha2X-111" vertex="1">
          <mxGeometry y="108" width="250" height="52" as="geometry" />
        </mxCell>
        <mxCell id="QMpJwfJOF2SySF0Yha2X-115" value="Leaderboard" style="swimlane;fontStyle=0;align=center;verticalAlign=top;childLayout=stackLayout;horizontal=1;startSize=26;horizontalStack=0;resizeParent=1;resizeLast=0;collapsible=1;marginBottom=0;rounded=0;shadow=0;strokeWidth=1;" parent="WIyWlLk6GJQsqaUBKTNV-1" vertex="1">
          <mxGeometry x="-730" y="-302" width="360" height="200" as="geometry">
            <mxRectangle x="230" y="140" width="160" height="26" as="alternateBounds" />
          </mxGeometry>
        </mxCell>
        <mxCell id="QMpJwfJOF2SySF0Yha2X-116" value="- rankings: ArrayList&lt;Profile&gt;" style="text;align=left;verticalAlign=top;spacingLeft=4;spacingRight=4;overflow=hidden;rotatable=0;points=[[0,0.5],[1,0.5]];portConstraint=eastwest;" parent="QMpJwfJOF2SySF0Yha2X-115" vertex="1">
          <mxGeometry y="26" width="360" height="34" as="geometry" />
        </mxCell>
        <mxCell id="QMpJwfJOF2SySF0Yha2X-117" value="" style="line;html=1;strokeWidth=1;align=left;verticalAlign=middle;spacingTop=-1;spacingLeft=3;spacingRight=3;rotatable=0;labelPosition=right;points=[];portConstraint=eastwest;" parent="QMpJwfJOF2SySF0Yha2X-115" vertex="1">
          <mxGeometry y="60" width="360" height="8" as="geometry" />
        </mxCell>
        <mxCell id="QMpJwfJOF2SySF0Yha2X-118" value="+ getTopPlayers: ArrayList&lt;Profile&gt;&#xa;+ updateLeaderboard(): void&#xa;+ sortPlayers(criteria: String): ArrayList&lt;Profile&gt;&#xa;+ toggleSortOrder(): void&#xa;+ searchPlayer(username: String): Profile&#xa;+ filterFriends(friendList: ArrayList&lt;Player&gt;): ArrayList&lt;Profile&gt;" style="text;align=left;verticalAlign=top;spacingLeft=4;spacingRight=4;overflow=hidden;rotatable=0;points=[[0,0.5],[1,0.5]];portConstraint=eastwest;" parent="QMpJwfJOF2SySF0Yha2X-115" vertex="1">
          <mxGeometry y="68" width="360" height="132" as="geometry" />
        </mxCell>
        <mxCell id="QMpJwfJOF2SySF0Yha2X-119" value="PlayerRanking" style="swimlane;fontStyle=0;align=center;verticalAlign=top;childLayout=stackLayout;horizontal=1;startSize=26;horizontalStack=0;resizeParent=1;resizeLast=0;collapsible=1;marginBottom=0;rounded=0;shadow=0;strokeWidth=1;" parent="WIyWlLk6GJQsqaUBKTNV-1" vertex="1">
          <mxGeometry x="-2430" y="1080" width="210" height="170" as="geometry">
            <mxRectangle x="230" y="140" width="160" height="26" as="alternateBounds" />
          </mxGeometry>
        </mxCell>
        <mxCell id="QMpJwfJOF2SySF0Yha2X-120" value="- rank: Rank&#xa;- rating: int&#xa;- winLossRatio: float&#xa;- totalWins: int" style="text;align=left;verticalAlign=top;spacingLeft=4;spacingRight=4;overflow=hidden;rotatable=0;points=[[0,0.5],[1,0.5]];portConstraint=eastwest;" parent="QMpJwfJOF2SySF0Yha2X-119" vertex="1">
          <mxGeometry y="26" width="210" height="64" as="geometry" />
        </mxCell>
        <mxCell id="QMpJwfJOF2SySF0Yha2X-121" value="" style="line;html=1;strokeWidth=1;align=left;verticalAlign=middle;spacingTop=-1;spacingLeft=3;spacingRight=3;rotatable=0;labelPosition=right;points=[];portConstraint=eastwest;" parent="QMpJwfJOF2SySF0Yha2X-119" vertex="1">
          <mxGeometry y="90" width="210" height="8" as="geometry" />
        </mxCell>
        <mxCell id="QMpJwfJOF2SySF0Yha2X-122" value="+ getRank(): Rank&#xa;+ getRating(): int&#xa;+ getwlr(): float&#xa;+ getTotalWins(): int" style="text;align=left;verticalAlign=top;spacingLeft=4;spacingRight=4;overflow=hidden;rotatable=0;points=[[0,0.5],[1,0.5]];portConstraint=eastwest;" parent="QMpJwfJOF2SySF0Yha2X-119" vertex="1">
          <mxGeometry y="98" width="210" height="72" as="geometry" />
        </mxCell>
        <mxCell id="QMpJwfJOF2SySF0Yha2X-123" style="rounded=0;orthogonalLoop=1;jettySize=auto;html=1;exitX=0.55;exitY=0.003;exitDx=0;exitDy=0;endArrow=circlePlus;endFill=0;startArrow=open;startFill=0;exitPerimeter=0;edgeStyle=orthogonalEdgeStyle;entryX=0.311;entryY=0.996;entryDx=0;entryDy=0;entryPerimeter=0;" parent="WIyWlLk6GJQsqaUBKTNV-1" source="QMpJwfJOF2SySF0Yha2X-111" target="QMpJwfJOF2SySF0Yha2X-122" edge="1">
          <mxGeometry relative="1" as="geometry">
            <mxPoint x="-1905" y="1294.8" as="sourcePoint" />
            <mxPoint x="-2260" y="1310" as="targetPoint" />
            <Array as="points">
              <mxPoint x="-2392" y="1310" />
              <mxPoint x="-2365" y="1310" />
            </Array>
          </mxGeometry>
        </mxCell>
        <mxCell id="QMpJwfJOF2SySF0Yha2X-126" value="Queue" style="swimlane;fontStyle=0;align=center;verticalAlign=top;childLayout=stackLayout;horizontal=1;startSize=26;horizontalStack=0;resizeParent=1;resizeLast=0;collapsible=1;marginBottom=0;rounded=0;shadow=0;strokeWidth=1;" parent="WIyWlLk6GJQsqaUBKTNV-1" vertex="1">
          <mxGeometry x="-2780" y="840" width="240" height="200" as="geometry">
            <mxRectangle x="230" y="140" width="160" height="26" as="alternateBounds" />
          </mxGeometry>
        </mxCell>
        <mxCell id="QMpJwfJOF2SySF0Yha2X-127" value="- players: ArrayList&lt;Player&gt;" style="text;align=left;verticalAlign=top;spacingLeft=4;spacingRight=4;overflow=hidden;rotatable=0;points=[[0,0.5],[1,0.5]];portConstraint=eastwest;" parent="QMpJwfJOF2SySF0Yha2X-126" vertex="1">
          <mxGeometry y="26" width="240" height="64" as="geometry" />
        </mxCell>
        <mxCell id="QMpJwfJOF2SySF0Yha2X-128" value="" style="line;html=1;strokeWidth=1;align=left;verticalAlign=middle;spacingTop=-1;spacingLeft=3;spacingRight=3;rotatable=0;labelPosition=right;points=[];portConstraint=eastwest;" parent="QMpJwfJOF2SySF0Yha2X-126" vertex="1">
          <mxGeometry y="90" width="240" height="8" as="geometry" />
        </mxCell>
        <mxCell id="QMpJwfJOF2SySF0Yha2X-129" value="+ addToQueue(player: Player): void&#xa;+ removeFromQueue(player: Player): void&#xa;+ sortQueue(): ArrayList&lt;&gt;" style="text;align=left;verticalAlign=top;spacingLeft=4;spacingRight=4;overflow=hidden;rotatable=0;points=[[0,0.5],[1,0.5]];portConstraint=eastwest;" parent="QMpJwfJOF2SySF0Yha2X-126" vertex="1">
          <mxGeometry y="98" width="240" height="102" as="geometry" />
        </mxCell>
        <mxCell id="QMpJwfJOF2SySF0Yha2X-130" style="rounded=0;orthogonalLoop=1;jettySize=auto;html=1;exitX=1.011;exitY=0.71;exitDx=0;exitDy=0;entryX=0.015;entryY=0.688;entryDx=0;entryDy=0;endArrow=circlePlus;endFill=0;startArrow=none;startFill=0;exitPerimeter=0;entryPerimeter=0;edgeStyle=orthogonalEdgeStyle;" parent="WIyWlLk6GJQsqaUBKTNV-1" source="QMpJwfJOF2SySF0Yha2X-127" target="QMpJwfJOF2SySF0Yha2X-108" edge="1">
          <mxGeometry relative="1" as="geometry">
            <mxPoint x="-1895" y="1284.8" as="sourcePoint" />
            <mxPoint x="-1895" y="1164.8" as="targetPoint" />
          </mxGeometry>
        </mxCell>
        <mxCell id="QMpJwfJOF2SySF0Yha2X-142" value="-ServerGame" style="swimlane;fontStyle=0;align=center;verticalAlign=top;childLayout=stackLayout;horizontal=1;startSize=26;horizontalStack=0;resizeParent=1;resizeLast=0;collapsible=1;marginBottom=0;rounded=0;shadow=0;strokeWidth=1;" parent="WIyWlLk6GJQsqaUBKTNV-1" vertex="1">
          <mxGeometry x="-3890" y="476" width="280" height="180" as="geometry">
            <mxRectangle x="230" y="140" width="160" height="26" as="alternateBounds" />
          </mxGeometry>
        </mxCell>
        <mxCell id="QMpJwfJOF2SySF0Yha2X-143" value="-gameID: long&#xa;-game: GameLogicAbstractReference&#xa;-matchMaking: MatchMaking" style="text;align=left;verticalAlign=top;spacingLeft=4;spacingRight=4;overflow=hidden;rotatable=0;points=[[0,0.5],[1,0.5]];portConstraint=eastwest;" parent="QMpJwfJOF2SySF0Yha2X-142" vertex="1">
          <mxGeometry y="26" width="280" height="64" as="geometry" />
        </mxCell>
        <mxCell id="QMpJwfJOF2SySF0Yha2X-144" value="" style="line;html=1;strokeWidth=1;align=left;verticalAlign=middle;spacingTop=-1;spacingLeft=3;spacingRight=3;rotatable=0;labelPosition=right;points=[];portConstraint=eastwest;" parent="QMpJwfJOF2SySF0Yha2X-142" vertex="1">
          <mxGeometry y="90" width="280" height="8" as="geometry" />
        </mxCell>
        <mxCell id="QMpJwfJOF2SySF0Yha2X-147" value="GameLogic" style="swimlane;fontStyle=0;align=center;verticalAlign=top;childLayout=stackLayout;horizontal=1;startSize=26;horizontalStack=0;resizeParent=1;resizeLast=0;collapsible=1;marginBottom=0;rounded=0;shadow=0;strokeWidth=1;" parent="WIyWlLk6GJQsqaUBKTNV-1" vertex="1">
          <mxGeometry x="-3779.2" y="920" width="310" height="180" as="geometry">
            <mxRectangle x="230" y="140" width="160" height="26" as="alternateBounds" />
          </mxGeometry>
        </mxCell>
        <mxCell id="QMpJwfJOF2SySF0Yha2X-148" value="&#xa;" style="text;align=left;verticalAlign=top;spacingLeft=4;spacingRight=4;overflow=hidden;rotatable=0;points=[[0,0.5],[1,0.5]];portConstraint=eastwest;" parent="QMpJwfJOF2SySF0Yha2X-147" vertex="1">
          <mxGeometry y="26" width="310" height="64" as="geometry" />
        </mxCell>
        <mxCell id="QMpJwfJOF2SySF0Yha2X-149" value="" style="line;html=1;strokeWidth=1;align=left;verticalAlign=middle;spacingTop=-1;spacingLeft=3;spacingRight=3;rotatable=0;labelPosition=right;points=[];portConstraint=eastwest;" parent="QMpJwfJOF2SySF0Yha2X-147" vertex="1">
          <mxGeometry y="90" width="310" height="8" as="geometry" />
        </mxCell>
        <mxCell id="QMpJwfJOF2SySF0Yha2X-150" value="+ GameLogic(args: str, players: ArrayList&lt;long&gt;)" style="text;align=left;verticalAlign=top;spacingLeft=4;spacingRight=4;overflow=hidden;rotatable=0;points=[[0,0.5],[1,0.5]];portConstraint=eastwest;" parent="QMpJwfJOF2SySF0Yha2X-147" vertex="1">
          <mxGeometry y="98" width="310" height="82" as="geometry" />
        </mxCell>
        <mxCell id="QMpJwfJOF2SySF0Yha2X-155" value="&lt;&lt;interface&gt;&gt;&#xa;GameLogicAbstractReference" style="swimlane;fontStyle=0;align=center;verticalAlign=top;childLayout=stackLayout;horizontal=1;startSize=40;horizontalStack=0;resizeParent=1;resizeLast=0;collapsible=1;marginBottom=0;rounded=0;shadow=0;strokeWidth=1;" parent="WIyWlLk6GJQsqaUBKTNV-1" vertex="1">
          <mxGeometry x="-4230" y="720" width="280" height="112" as="geometry">
            <mxRectangle x="230" y="140" width="160" height="26" as="alternateBounds" />
          </mxGeometry>
        </mxCell>
        <mxCell id="QMpJwfJOF2SySF0Yha2X-157" value="" style="line;html=1;strokeWidth=1;align=left;verticalAlign=middle;spacingTop=-1;spacingLeft=3;spacingRight=3;rotatable=0;labelPosition=right;points=[];portConstraint=eastwest;" parent="QMpJwfJOF2SySF0Yha2X-155" vertex="1">
          <mxGeometry y="40" width="280" height="8" as="geometry" />
        </mxCell>
        <mxCell id="QMpJwfJOF2SySF0Yha2X-273" value="+getLogic(): GameLogic" style="text;align=left;verticalAlign=top;spacingLeft=4;spacingRight=4;overflow=hidden;rotatable=0;points=[[0,0.5],[1,0.5]];portConstraint=eastwest;" parent="QMpJwfJOF2SySF0Yha2X-155" vertex="1">
          <mxGeometry y="48" width="280" height="64" as="geometry" />
        </mxCell>
        <mxCell id="QMpJwfJOF2SySF0Yha2X-161" value="Player" style="swimlane;fontStyle=0;align=center;verticalAlign=top;childLayout=stackLayout;horizontal=1;startSize=26;horizontalStack=0;resizeParent=1;resizeLast=0;collapsible=1;marginBottom=0;rounded=0;shadow=0;strokeWidth=1;" parent="WIyWlLk6GJQsqaUBKTNV-1" vertex="1">
          <mxGeometry x="-2030" y="778" width="200.6" height="142" as="geometry">
            <mxRectangle x="230" y="140" width="160" height="26" as="alternateBounds" />
          </mxGeometry>
        </mxCell>
        <mxCell id="QMpJwfJOF2SySF0Yha2X-162" value="-playerID: long&#xa;-ranking: PlayerRanking" style="text;align=left;verticalAlign=top;spacingLeft=4;spacingRight=4;overflow=hidden;rotatable=0;points=[[0,0.5],[1,0.5]];portConstraint=eastwest;" parent="QMpJwfJOF2SySF0Yha2X-161" vertex="1">
          <mxGeometry y="26" width="200.6" height="54" as="geometry" />
        </mxCell>
        <mxCell id="QMpJwfJOF2SySF0Yha2X-163" value="" style="line;html=1;strokeWidth=1;align=left;verticalAlign=middle;spacingTop=-1;spacingLeft=3;spacingRight=3;rotatable=0;labelPosition=right;points=[];portConstraint=eastwest;" parent="QMpJwfJOF2SySF0Yha2X-161" vertex="1">
          <mxGeometry y="80" width="200.6" height="8" as="geometry" />
        </mxCell>
        <mxCell id="QMpJwfJOF2SySF0Yha2X-277" value="+Player(args: str)" style="text;align=left;verticalAlign=top;spacingLeft=4;spacingRight=4;overflow=hidden;rotatable=0;points=[[0,0.5],[1,0.5]];portConstraint=eastwest;" parent="QMpJwfJOF2SySF0Yha2X-161" vertex="1">
          <mxGeometry y="88" width="200.6" height="54" as="geometry" />
        </mxCell>
        <mxCell id="QMpJwfJOF2SySF0Yha2X-167" style="rounded=0;orthogonalLoop=1;jettySize=auto;html=1;entryX=1;entryY=0;entryDx=0;entryDy=0;endArrow=open;endFill=0;exitX=0.25;exitY=1;exitDx=0;exitDy=0;edgeStyle=orthogonalEdgeStyle;" parent="WIyWlLk6GJQsqaUBKTNV-1" source="QMpJwfJOF2SySF0Yha2X-161" target="QMpJwfJOF2SySF0Yha2X-119" edge="1">
          <mxGeometry relative="1" as="geometry">
            <mxPoint x="-2200" y="660" as="sourcePoint" />
            <mxPoint x="-2024" y="950" as="targetPoint" />
          </mxGeometry>
        </mxCell>
        <mxCell id="QMpJwfJOF2SySF0Yha2X-168" style="rounded=0;orthogonalLoop=1;jettySize=auto;html=1;entryX=0.167;entryY=0;entryDx=0;entryDy=0;endArrow=open;endFill=0;entryPerimeter=0;exitX=1;exitY=0.5;exitDx=0;exitDy=0;edgeStyle=orthogonalEdgeStyle;" parent="WIyWlLk6GJQsqaUBKTNV-1" source="QMpJwfJOF2SySF0Yha2X-143" target="QMpJwfJOF2SySF0Yha2X-107" edge="1">
          <mxGeometry relative="1" as="geometry">
            <mxPoint x="-3350" y="510" as="sourcePoint" />
            <mxPoint x="-3070" y="920" as="targetPoint" />
          </mxGeometry>
        </mxCell>
        <mxCell id="QMpJwfJOF2SySF0Yha2X-169" value="ServerGames" style="swimlane;fontStyle=0;align=center;verticalAlign=top;childLayout=stackLayout;horizontal=1;startSize=26;horizontalStack=0;resizeParent=1;resizeLast=0;collapsible=1;marginBottom=0;rounded=0;shadow=0;strokeWidth=1;" parent="WIyWlLk6GJQsqaUBKTNV-1" vertex="1">
          <mxGeometry x="-3870" y="228.76" width="280" height="180" as="geometry">
            <mxRectangle x="230" y="140" width="160" height="26" as="alternateBounds" />
          </mxGeometry>
        </mxCell>
        <mxCell id="QMpJwfJOF2SySF0Yha2X-170" value="-games: ArrayList&lt;ServerGame&gt;" style="text;align=left;verticalAlign=top;spacingLeft=4;spacingRight=4;overflow=hidden;rotatable=0;points=[[0,0.5],[1,0.5]];portConstraint=eastwest;" parent="QMpJwfJOF2SySF0Yha2X-169" vertex="1">
          <mxGeometry y="26" width="280" height="64" as="geometry" />
        </mxCell>
        <mxCell id="QMpJwfJOF2SySF0Yha2X-171" value="" style="line;html=1;strokeWidth=1;align=left;verticalAlign=middle;spacingTop=-1;spacingLeft=3;spacingRight=3;rotatable=0;labelPosition=right;points=[];portConstraint=eastwest;" parent="QMpJwfJOF2SySF0Yha2X-169" vertex="1">
          <mxGeometry y="90" width="280" height="8" as="geometry" />
        </mxCell>
        <mxCell id="QMpJwfJOF2SySF0Yha2X-186" value="+getLogic(args: str): GameLogic&#xa;+joinQueue(args: str): GameLogic&#xa;" style="text;align=left;verticalAlign=top;spacingLeft=4;spacingRight=4;overflow=hidden;rotatable=0;points=[[0,0.5],[1,0.5]];portConstraint=eastwest;" parent="QMpJwfJOF2SySF0Yha2X-169" vertex="1">
          <mxGeometry y="98" width="280" height="64" as="geometry" />
        </mxCell>
        <mxCell id="QMpJwfJOF2SySF0Yha2X-172" style="rounded=0;orthogonalLoop=1;jettySize=auto;html=1;endArrow=circlePlus;endFill=0;exitX=0.831;exitY=0.017;exitDx=0;exitDy=0;exitPerimeter=0;entryX=0.75;entryY=1;entryDx=0;entryDy=0;edgeStyle=orthogonalEdgeStyle;" parent="WIyWlLk6GJQsqaUBKTNV-1" source="QMpJwfJOF2SySF0Yha2X-142" target="QMpJwfJOF2SySF0Yha2X-169" edge="1">
          <mxGeometry relative="1" as="geometry">
            <mxPoint x="-3630" y="450" as="sourcePoint" />
            <mxPoint x="-3700" y="410" as="targetPoint" />
          </mxGeometry>
        </mxCell>
        <mxCell id="QMpJwfJOF2SySF0Yha2X-173" style="rounded=0;orthogonalLoop=1;jettySize=auto;html=1;entryX=0.682;entryY=1.008;entryDx=0;entryDy=0;endArrow=open;endFill=0;exitX=0.25;exitY=0;exitDx=0;exitDy=0;entryPerimeter=0;edgeStyle=orthogonalEdgeStyle;" parent="WIyWlLk6GJQsqaUBKTNV-1" source="QMpJwfJOF2SySF0Yha2X-107" target="QMpJwfJOF2SySF0Yha2X-48" edge="1">
          <mxGeometry relative="1" as="geometry">
            <mxPoint x="-2880" y="590" as="sourcePoint" />
            <mxPoint x="-3020" y="980" as="targetPoint" />
            <Array as="points">
              <mxPoint x="-2420" y="580" />
              <mxPoint x="-2871" y="580" />
            </Array>
          </mxGeometry>
        </mxCell>
        <mxCell id="QMpJwfJOF2SySF0Yha2X-174" style="rounded=0;orthogonalLoop=1;jettySize=auto;html=1;entryX=1.017;entryY=0.808;entryDx=0;entryDy=0;endArrow=open;endFill=0;entryPerimeter=0;exitX=0.215;exitY=0.962;exitDx=0;exitDy=0;exitPerimeter=0;edgeStyle=orthogonalEdgeStyle;" parent="WIyWlLk6GJQsqaUBKTNV-1" source="QMpJwfJOF2SySF0Yha2X-48" target="edf9sT6OjQ_JvkJH-jNT-4" edge="1">
          <mxGeometry relative="1" as="geometry">
            <mxPoint x="-3030" y="450" as="sourcePoint" />
            <mxPoint x="-2766" y="729" as="targetPoint" />
          </mxGeometry>
        </mxCell>
        <mxCell id="QMpJwfJOF2SySF0Yha2X-175" style="rounded=0;orthogonalLoop=1;jettySize=auto;html=1;entryX=0.696;entryY=-0.008;entryDx=0;entryDy=0;endArrow=open;endFill=0;entryPerimeter=0;exitX=0.507;exitY=1.041;exitDx=0;exitDy=0;exitPerimeter=0;edgeStyle=orthogonalEdgeStyle;" parent="WIyWlLk6GJQsqaUBKTNV-1" source="edf9sT6OjQ_JvkJH-jNT-42" target="QMpJwfJOF2SySF0Yha2X-147" edge="1">
          <mxGeometry relative="1" as="geometry">
            <mxPoint x="-3280" y="838" as="sourcePoint" />
            <mxPoint x="-3522" y="1095" as="targetPoint" />
            <Array as="points">
              <mxPoint x="-3438" y="885" />
              <mxPoint x="-3563" y="885" />
            </Array>
          </mxGeometry>
        </mxCell>
        <mxCell id="QMpJwfJOF2SySF0Yha2X-176" style="rounded=0;orthogonalLoop=1;jettySize=auto;html=1;entryX=1;entryY=0;entryDx=0;entryDy=0;endArrow=open;endFill=0;exitX=0;exitY=0.5;exitDx=0;exitDy=0;edgeStyle=orthogonalEdgeStyle;" parent="WIyWlLk6GJQsqaUBKTNV-1" source="QMpJwfJOF2SySF0Yha2X-143" target="QMpJwfJOF2SySF0Yha2X-155" edge="1">
          <mxGeometry relative="1" as="geometry">
            <mxPoint x="-3565" y="680" as="sourcePoint" />
            <mxPoint x="-3620" y="763" as="targetPoint" />
          </mxGeometry>
        </mxCell>
        <mxCell id="QMpJwfJOF2SySF0Yha2X-177" style="rounded=0;orthogonalLoop=1;jettySize=auto;html=1;entryX=0.202;entryY=-0.005;entryDx=0;entryDy=0;endArrow=open;endFill=0;exitX=0.75;exitY=1;exitDx=0;exitDy=0;entryPerimeter=0;edgeStyle=orthogonalEdgeStyle;" parent="WIyWlLk6GJQsqaUBKTNV-1" source="QMpJwfJOF2SySF0Yha2X-155" target="QMpJwfJOF2SySF0Yha2X-147" edge="1">
          <mxGeometry relative="1" as="geometry">
            <mxPoint x="-3730" y="712.4999999999998" as="sourcePoint" />
            <mxPoint x="-3720" y="815.5" as="targetPoint" />
          </mxGeometry>
        </mxCell>
        <mxCell id="QMpJwfJOF2SySF0Yha2X-179" style="edgeStyle=orthogonalEdgeStyle;rounded=0;orthogonalLoop=1;jettySize=auto;html=1;exitX=1;exitY=0.5;exitDx=0;exitDy=0;entryX=0.007;entryY=0.842;entryDx=0;entryDy=0;entryPerimeter=0;" parent="WIyWlLk6GJQsqaUBKTNV-1" source="zkfFHV4jXpPFQw0GAbJ--1" target="9oPnksN9PJK1Zj-ZbbYk-32" edge="1">
          <mxGeometry relative="1" as="geometry" />
        </mxCell>
        <mxCell id="QMpJwfJOF2SySF0Yha2X-180" style="rounded=0;orthogonalLoop=1;jettySize=auto;html=1;endArrow=open;endFill=0;exitX=1;exitY=0.5;exitDx=0;exitDy=0;edgeStyle=orthogonalEdgeStyle;entryX=0.75;entryY=1;entryDx=0;entryDy=0;" parent="WIyWlLk6GJQsqaUBKTNV-1" source="QMpJwfJOF2SySF0Yha2X-150" target="9oPnksN9PJK1Zj-ZbbYk-29" edge="1">
          <mxGeometry relative="1" as="geometry">
            <mxPoint x="-2820" y="1419" as="sourcePoint" />
            <mxPoint x="-460" y="390" as="targetPoint" />
            <Array as="points">
              <mxPoint x="-3469" y="1750" />
              <mxPoint x="-450" y="1750" />
              <mxPoint x="-450" y="430" />
              <mxPoint x="-444" y="430" />
            </Array>
          </mxGeometry>
        </mxCell>
        <mxCell id="QMpJwfJOF2SySF0Yha2X-181" style="rounded=0;orthogonalLoop=1;jettySize=auto;html=1;endArrow=open;endFill=0;exitX=1;exitY=0.5;exitDx=0;exitDy=0;edgeStyle=orthogonalEdgeStyle;entryX=0.25;entryY=0;entryDx=0;entryDy=0;" parent="WIyWlLk6GJQsqaUBKTNV-1" source="QMpJwfJOF2SySF0Yha2X-58" target="9oPnksN9PJK1Zj-ZbbYk-29" edge="1">
          <mxGeometry relative="1" as="geometry">
            <mxPoint x="-2010" y="-200" as="sourcePoint" />
            <mxPoint x="-620" y="180" as="targetPoint" />
            <Array as="points">
              <mxPoint x="-1160" y="-121" />
              <mxPoint x="-1160" y="50" />
              <mxPoint x="-589" y="50" />
            </Array>
          </mxGeometry>
        </mxCell>
        <mxCell id="QMpJwfJOF2SySF0Yha2X-182" style="rounded=0;orthogonalLoop=1;jettySize=auto;html=1;entryX=0.25;entryY=0;entryDx=0;entryDy=0;endArrow=open;endFill=0;exitX=1.002;exitY=0.801;exitDx=0;exitDy=0;exitPerimeter=0;edgeStyle=orthogonalEdgeStyle;" parent="WIyWlLk6GJQsqaUBKTNV-1" source="QMpJwfJOF2SySF0Yha2X-58" target="QMpJwfJOF2SySF0Yha2X-41" edge="1">
          <mxGeometry relative="1" as="geometry">
            <mxPoint x="-2100" y="-111" as="sourcePoint" />
            <mxPoint x="-652" y="358" as="targetPoint" />
          </mxGeometry>
        </mxCell>
        <mxCell id="QMpJwfJOF2SySF0Yha2X-183" style="rounded=0;orthogonalLoop=1;jettySize=auto;html=1;entryX=0.989;entryY=0.333;entryDx=0;entryDy=0;endArrow=open;endFill=0;entryPerimeter=0;exitX=0;exitY=0.5;exitDx=0;exitDy=0;edgeStyle=orthogonalEdgeStyle;" parent="WIyWlLk6GJQsqaUBKTNV-1" source="QMpJwfJOF2SySF0Yha2X-46" target="QMpJwfJOF2SySF0Yha2X-170" edge="1">
          <mxGeometry relative="1" as="geometry">
            <mxPoint x="-3190" y="-30" as="sourcePoint" />
            <mxPoint x="-3522" y="267" as="targetPoint" />
          </mxGeometry>
        </mxCell>
        <mxCell id="QMpJwfJOF2SySF0Yha2X-271" value="Only exists to have a reference to a particular games logic without creating a GameLogic" style="shape=note2;boundedLbl=1;whiteSpace=wrap;html=1;size=14;verticalAlign=top;align=center;" parent="WIyWlLk6GJQsqaUBKTNV-1" vertex="1">
          <mxGeometry x="-4390" y="590" width="150" height="90" as="geometry" />
        </mxCell>
        <mxCell id="QMpJwfJOF2SySF0Yha2X-272" value="" style="endArrow=none;dashed=1;html=1;rounded=0;entryX=0;entryY=0;entryDx=150;entryDy=52;entryPerimeter=0;exitX=0.18;exitY=-0.014;exitDx=0;exitDy=0;exitPerimeter=0;" parent="WIyWlLk6GJQsqaUBKTNV-1" source="QMpJwfJOF2SySF0Yha2X-155" target="QMpJwfJOF2SySF0Yha2X-271" edge="1">
          <mxGeometry width="50" height="50" relative="1" as="geometry">
            <mxPoint x="-4160" y="593" as="sourcePoint" />
            <mxPoint x="-4100" y="539" as="targetPoint" />
          </mxGeometry>
        </mxCell>
        <mxCell id="QMpJwfJOF2SySF0Yha2X-276" style="rounded=0;orthogonalLoop=1;jettySize=auto;html=1;endArrow=open;endFill=0;exitX=1;exitY=0.5;exitDx=0;exitDy=0;edgeStyle=orthogonalEdgeStyle;" parent="WIyWlLk6GJQsqaUBKTNV-1" source="QMpJwfJOF2SySF0Yha2X-108" target="QMpJwfJOF2SySF0Yha2X-162" edge="1">
          <mxGeometry relative="1" as="geometry">
            <mxPoint x="-2030" y="915" as="sourcePoint" />
            <mxPoint x="-2210" y="1080" as="targetPoint" />
          </mxGeometry>
        </mxCell>
        <mxCell id="x9wP-T2VNKuLCY87gc1U-0" value="UI" style="swimlane;fontStyle=0;align=center;verticalAlign=top;childLayout=stackLayout;horizontal=1;startSize=26;horizontalStack=0;resizeParent=1;resizeLast=0;collapsible=1;marginBottom=0;rounded=0;shadow=0;strokeWidth=1;" vertex="1" parent="WIyWlLk6GJQsqaUBKTNV-1">
          <mxGeometry x="-1080" y="-440" width="210" height="138" as="geometry">
            <mxRectangle x="230" y="140" width="160" height="26" as="alternateBounds" />
          </mxGeometry>
        </mxCell>
        <mxCell id="x9wP-T2VNKuLCY87gc1U-1" value="" style="line;html=1;strokeWidth=1;align=left;verticalAlign=middle;spacingTop=-1;spacingLeft=3;spacingRight=3;rotatable=0;labelPosition=right;points=[];portConstraint=eastwest;" vertex="1" parent="x9wP-T2VNKuLCY87gc1U-0">
          <mxGeometry y="26" width="210" height="8" as="geometry" />
        </mxCell>
        <mxCell id="x9wP-T2VNKuLCY87gc1U-3" value="" style="endArrow=none;html=1;rounded=0;fontSize=12;startSize=8;endSize=8;exitX=1;exitY=0.25;exitDx=0;exitDy=0;entryX=-0.018;entryY=0.846;entryDx=0;entryDy=0;entryPerimeter=0;startArrow=open;startFill=0;edgeStyle=orthogonalEdgeStyle;" edge="1" parent="WIyWlLk6GJQsqaUBKTNV-1" source="x9wP-T2VNKuLCY87gc1U-0" target="9oPnksN9PJK1Zj-ZbbYk-56">
          <mxGeometry width="50" height="50" relative="1" as="geometry">
            <mxPoint x="-670" y="-320" as="sourcePoint" />
            <mxPoint x="-620" y="-370" as="targetPoint" />
          </mxGeometry>
        </mxCell>
        <mxCell id="x9wP-T2VNKuLCY87gc1U-4" value="" style="endArrow=open;html=1;rounded=0;fontSize=12;startSize=8;endSize=8;exitX=1;exitY=0.75;exitDx=0;exitDy=0;entryX=0.003;entryY=0.989;entryDx=0;entryDy=0;entryPerimeter=0;endFill=0;edgeStyle=orthogonalEdgeStyle;" edge="1" parent="WIyWlLk6GJQsqaUBKTNV-1" source="x9wP-T2VNKuLCY87gc1U-0" target="QMpJwfJOF2SySF0Yha2X-116">
          <mxGeometry width="50" height="50" relative="1" as="geometry">
            <mxPoint x="-840" y="-300" as="sourcePoint" />
            <mxPoint x="-790" y="-350" as="targetPoint" />
          </mxGeometry>
        </mxCell>
        <mxCell id="x9wP-T2VNKuLCY87gc1U-6" value="" style="endArrow=open;html=1;rounded=0;fontSize=12;startSize=8;endSize=8;exitX=1;exitY=0.158;exitDx=0;exitDy=0;exitPerimeter=0;entryX=0;entryY=0.75;entryDx=0;entryDy=0;edgeStyle=orthogonalEdgeStyle;endFill=0;" edge="1" parent="WIyWlLk6GJQsqaUBKTNV-1" source="QMpJwfJOF2SySF0Yha2X-81" target="x9wP-T2VNKuLCY87gc1U-0">
          <mxGeometry width="50" height="50" relative="1" as="geometry">
            <mxPoint x="-2560" y="-149.24" as="sourcePoint" />
            <mxPoint x="-2510" y="-199.24" as="targetPoint" />
            <Array as="points">
              <mxPoint x="-2500" y="-139" />
              <mxPoint x="-2500" y="-460" />
              <mxPoint x="-1240" y="-460" />
              <mxPoint x="-1240" y="-336" />
            </Array>
          </mxGeometry>
        </mxCell>
        <mxCell id="x9wP-T2VNKuLCY87gc1U-8" value="Represents several UI classes" style="shape=note2;boundedLbl=1;whiteSpace=wrap;html=1;size=14;verticalAlign=top;align=center;" vertex="1" parent="WIyWlLk6GJQsqaUBKTNV-1">
          <mxGeometry x="-1160" y="-680" width="150" height="90" as="geometry" />
        </mxCell>
        <mxCell id="x9wP-T2VNKuLCY87gc1U-10" value="" style="endArrow=none;dashed=1;html=1;dashPattern=1 3;strokeWidth=2;rounded=0;fontSize=12;startSize=8;endSize=8;curved=1;entryX=0.694;entryY=0.979;entryDx=0;entryDy=0;entryPerimeter=0;exitX=0.339;exitY=0.02;exitDx=0;exitDy=0;exitPerimeter=0;" edge="1" parent="WIyWlLk6GJQsqaUBKTNV-1" source="x9wP-T2VNKuLCY87gc1U-0" target="x9wP-T2VNKuLCY87gc1U-8">
          <mxGeometry width="50" height="50" relative="1" as="geometry">
            <mxPoint x="-1020" y="-490" as="sourcePoint" />
            <mxPoint x="-970" y="-540" as="targetPoint" />
          </mxGeometry>
        </mxCell>
        <mxCell id="x9wP-T2VNKuLCY87gc1U-17" value="Game Logic" style="rounded=0;whiteSpace=wrap;html=1;" vertex="1" parent="WIyWlLk6GJQsqaUBKTNV-1">
          <mxGeometry x="-4430" y="60" width="120" height="60" as="geometry" />
        </mxCell>
        <mxCell id="x9wP-T2VNKuLCY87gc1U-18" value="Network" style="rounded=0;whiteSpace=wrap;html=1;" vertex="1" parent="WIyWlLk6GJQsqaUBKTNV-1">
          <mxGeometry x="-3160" y="-600" width="120" height="60" as="geometry" />
        </mxCell>
        <mxCell id="x9wP-T2VNKuLCY87gc1U-19" value="Profiles and Authentication" style="rounded=0;whiteSpace=wrap;html=1;" vertex="1" parent="WIyWlLk6GJQsqaUBKTNV-1">
          <mxGeometry x="-1570" y="65.5" width="120" height="60" as="geometry" />
        </mxCell>
        <mxCell id="x9wP-T2VNKuLCY87gc1U-20" value="Matchmaking" style="rounded=0;whiteSpace=wrap;html=1;" vertex="1" parent="WIyWlLk6GJQsqaUBKTNV-1">
          <mxGeometry x="-2940" y="600" width="120" height="60" as="geometry" />
        </mxCell>
      </root>
    </mxGraphModel>
  </diagram>
</mxfile>
